<?xml version="1.0" encoding="UTF-8" standalone="no"?>
<!-- Created with Inkscape (http://www.inkscape.org/) -->

<svg
   xmlns:dc="http://purl.org/dc/elements/1.1/"
   xmlns:cc="http://creativecommons.org/ns#"
   xmlns:rdf="http://www.w3.org/1999/02/22-rdf-syntax-ns#"
   xmlns:svg="http://www.w3.org/2000/svg"
   xmlns="http://www.w3.org/2000/svg"
   xmlns:sodipodi="http://sodipodi.sourceforge.net/DTD/sodipodi-0.dtd"
   xmlns:inkscape="http://www.inkscape.org/namespaces/inkscape"
   width="160"
   height="160"
   viewBox="0 0 160 159.99999"
   id="svg4598"
   version="1.1"
   inkscape:version="0.91 r13725"
   sodipodi:docname="fablab.svg"
   inkscape:export-filename="./export/fablab-600.png"
   inkscape:export-xdpi="176.644"
   inkscape:export-ydpi="176.644">
  <defs
     id="defs4600" />
  <sodipodi:namedview
     id="base"
     pagecolor="#ffffff"
     bordercolor="#666666"
     borderopacity="1.0"
     inkscape:pageopacity="0.0"
     inkscape:pageshadow="2"
     inkscape:zoom="4"
     inkscape:cx="84.887099"
     inkscape:cy="78.970774"
     inkscape:document-units="px"
     inkscape:current-layer="layer1"
     showgrid="false"
     fit-margin-top="0"
     fit-margin-left="0"
     fit-margin-right="0"
     fit-margin-bottom="0"
     inkscape:window-width="1916"
     inkscape:window-height="1033"
     inkscape:window-x="0"
     inkscape:window-y="22"
     inkscape:window-maximized="0"
     showguides="true"
     inkscape:guide-bbox="true"
     units="px" />
  <metadata
     id="metadata4603">
    <rdf:RDF>
      <cc:Work
         rdf:about="">
        <dc:format>image/svg+xml</dc:format>
        <dc:type
           rdf:resource="http://purl.org/dc/dcmitype/StillImage" />
        <dc:title></dc:title>
      </cc:Work>
    </rdf:RDF>
  </metadata>
  <g
     inkscape:label="Layer 1"
     inkscape:groupmode="layer"
     id="layer1"
     transform="translate(-250.87816,-546.26389)">
    <g
       id="g5272"
       transform="translate(2.608315,-0.38403263)">
      <path
         sodipodi:nodetypes="ccccccccccccccccccccccccccccccccccccccccccccccccc"
         d="m 343.92403,593.51694 2.19625,6.7925 -5.7825,-4.1875 -5.78125,4.1875 2.19625,-6.7925 -5.77,-4.20375 7.13875,-0.0113 2.21625,-6.78625 2.21625,6.78625 7.13875,0.01 -5.76875,4.205 z m 47.1825,25.05 14.555,-12.9775 -8.7825,-21.20125 -18.9525,1.085 c -2.7975,-3.56375 -5.94,-6.77875 -9.3675,-9.6075 l 1.1175,-19.48375 -21.2025,-8.7825 -12.7325,14.28125 c -4.3425,-0.50625 -8.7625,-0.56625 -13.1925,-0.14125 l -13.11375,-14.7075 -21.20125,8.7825 1.11,19.37875 c -3.37875,2.695 -6.43625,5.70125 -9.14375,8.96875 l -19.9725,-1.14375 -8.78125,21.20125 14.66125,13.0725 c -0.475,4.21375 -0.5325,8.49875 -0.1325,12.79375 l -0.0875,-0.21 -15.00875,13.3825 8.78125,21.20125 19.65625,-1.12625 21.23625,-35.10875 0,-33.50625 10.9025,-12.4975 10.9025,12.4975 0,17.55125 25.5275,0 0,22.86875 17.81626,-0.26625 0,15.68875 10.53,14.1125 0.41875,0.006 0.009,0.0238 19.6525,1.12625 8.7825,-21.20125 -14.22,-12.67875 c 0.545,-4.4025 0.64375,-8.885 0.2325,-13.3825"
         style="fill:#bf1b2c;fill-opacity:1;fill-rule:nonzero;stroke:none"
         id="path4392"
         inkscape:connector-curvature="0" />
      <path
         d="m 255.38191,705.92994 -4.50375,0 0,-24.385 10.925,0 0,3.92 -6.42125,0 0,6.77125 5.9875,0 0,3.92 -5.9875,0 0,9.77375 z"
         style="fill:#bf1b2c;fill-opacity:1;fill-rule:nonzero;stroke:none"
         id="path4396"
         inkscape:connector-curvature="0" />
      <path
         d="m 269.84266,702.79394 c 0.8125,0 1.45875,-0.36375 1.94375,-1.0925 0.4825,-0.72875 0.725,-1.69875 0.725,-2.91 l 0,-1.5675 -1.3675,0.0662 c -1.0125,0.055 -1.755,0.345 -2.2275,0.8675 -0.4725,0.5225 -0.7075,1.3 -0.7075,2.335 0,1.53375 0.54375,2.30125 1.63375,2.30125 m 3.8525,3.13625 -0.88375,-2.53625 -0.1,0 c -0.65625,1.09125 -1.33375,1.84125 -2.03375,2.2525 -0.70125,0.41125 -1.585,0.6175 -2.6525,0.6175 -1.3675,0 -2.44375,-0.51125 -3.2275,-1.535 -0.78375,-1.0225 -1.17625,-2.44625 -1.17625,-4.27 0,-1.95625 0.53625,-3.41 1.61,-4.36125 1.0725,-0.95125 2.67625,-1.47625 4.81125,-1.57625 l 2.46875,-0.1 0,-1.33375 c 0,-1.73625 -0.75,-2.6025 -2.25125,-2.6025 -1.1125,0 -2.39125,0.43375 -3.83625,1.30125 l -1.535,-3.07 c 1.84625,-1.1675 3.85375,-1.75125 6.02125,-1.75125 1.96875,0 3.46625,0.565 4.495,1.69375 1.02875,1.12875 1.54375,2.72625 1.54375,4.795 l 0,12.47625 -3.25375,0 z"
         style="fill:#bf1b2c;fill-opacity:1;fill-rule:nonzero;stroke:none"
         id="path4400"
         inkscape:connector-curvature="0" />
      <path
         d="m 287.38928,690.76844 c -0.845,0 -1.45375,0.395 -1.82625,1.18375 -0.3725,0.79 -0.57,2.18 -0.5925,4.17125 l 0,0.45 c 0,2.1575 0.19125,3.675 0.57625,4.5525 0.38375,0.87875 1.00875,1.31875 1.87625,1.31875 1.60125,0 2.40125,-1.96875 2.40125,-5.905 0,-3.8475 -0.81125,-5.77125 -2.435,-5.77125 m 1.535,-3.76875 c 1.69,0 3.01875,0.83875 3.98625,2.51875 0.96625,1.67875 1.45125,4.04125 1.45125,7.0875 0,3.08 -0.4875,5.46 -1.46,7.13875 -0.97375,1.67875 -2.32125,2.51875 -4.045,2.51875 -0.83375,0 -1.57,-0.18 -2.21,-0.54125 -0.63875,-0.36125 -1.2425,-0.99875 -1.81,-1.91 l -0.28375,0 -0.75,2.1175 -3.26875,0 0,-25.9525 4.43625,0 0,6.07125 c 0,0.25625 -0.005,0.5225 -0.0163,0.8 -0.0112,0.27875 -0.0838,1.25125 -0.21625,2.92 l 0.2325,0 c 0.545,-1.0225 1.13375,-1.74 1.76875,-2.1525 0.63375,-0.41125 1.36125,-0.61625 2.185,-0.61625"
         style="fill:#bf1b2c;fill-opacity:1;fill-rule:nonzero;stroke:none"
         id="path4404"
         inkscape:connector-curvature="0" />
      <path
         d="m 297.74666,705.92994 0,-24.385 4.53625,0 0,20.415 6.2875,0 0,3.97 -10.82375,0 z"
         style="fill:#bf1b2c;fill-opacity:1;fill-rule:nonzero;stroke:none"
         id="path4408"
         inkscape:connector-curvature="0" />
      <path
         d="m 316.46003,702.79394 c 0.81125,0 1.45875,-0.36375 1.9425,-1.0925 0.485,-0.72875 0.72625,-1.69875 0.72625,-2.91 l 0,-1.5675 -1.3675,0.0662 c -1.0125,0.055 -1.75375,0.345 -2.2275,0.8675 -0.4725,0.5225 -0.7075,1.3 -0.7075,2.335 0,1.53375 0.54375,2.30125 1.63375,2.30125 m 3.85375,3.13625 -0.885,-2.53625 -0.1,0 c -0.65625,1.09125 -1.33375,1.84125 -2.03375,2.2525 -0.70125,0.41125 -1.58625,0.6175 -2.6525,0.6175 -1.36875,0 -2.44375,-0.51125 -3.2275,-1.535 -0.785,-1.0225 -1.17625,-2.44625 -1.17625,-4.27 0,-1.95625 0.5375,-3.41 1.60875,-4.36125 1.07375,-0.95125 2.6775,-1.47625 4.8125,-1.57625 l 2.46875,-0.1 0,-1.33375 c 0,-1.73625 -0.75,-2.6025 -2.2525,-2.6025 -1.11,0 -2.39,0.43375 -3.835,1.30125 l -1.535,-3.07 c 1.84625,-1.1675 3.85375,-1.75125 6.02125,-1.75125 1.96875,0 3.46625,0.565 4.495,1.69375 1.02875,1.12875 1.5425,2.72625 1.5425,4.795 l 0,12.47625 -3.25125,0 z"
         style="fill:#bf1b2c;fill-opacity:1;fill-rule:nonzero;stroke:none"
         id="path4412"
         inkscape:connector-curvature="0" />
      <path
         d="m 334.00666,690.76844 c -0.845,0 -1.4525,0.395 -1.82625,1.18375 -0.3725,0.79 -0.56875,2.18 -0.59125,4.17125 l 0,0.45 c 0,2.1575 0.19125,3.675 0.575,4.5525 0.38375,0.87875 1.00875,1.31875 1.87625,1.31875 1.60125,0 2.40125,-1.96875 2.40125,-5.905 0,-3.8475 -0.81125,-5.77125 -2.435,-5.77125 m 1.535,-3.76875 c 1.69,0 3.01875,0.83875 3.98625,2.51875 0.9675,1.67875 1.45125,4.04125 1.45125,7.0875 0,3.08 -0.4875,5.46 -1.45875,7.13875 -0.97375,1.67875 -2.3225,2.51875 -4.045,2.51875 -0.835,0 -1.57125,-0.18 -2.21,-0.54125 -0.64,-0.36125 -1.2425,-0.99875 -1.81,-1.91 l -0.28375,0 -0.75125,2.1175 -3.2675,0 0,-25.9525 4.43625,0 0,6.07125 c 0,0.25625 -0.006,0.5225 -0.0163,0.8 -0.0112,0.27875 -0.0837,1.25125 -0.2175,2.92 l 0.23375,0 c 0.54375,-1.0225 1.13375,-1.74 1.76875,-2.1525 0.63375,-0.41125 1.36125,-0.61625 2.18375,-0.61625"
         style="fill:#bf1b2c;fill-opacity:1;fill-rule:nonzero;stroke:none"
         id="path4416"
         inkscape:connector-curvature="0" />
      <path
         d="m 363.91316,699.20806 c 0,2.28 -0.57625,4.02625 -1.72625,5.2375 -1.15125,1.21125 -2.81,1.8175 -4.97875,1.8175 -2.12375,0 -3.93125,-0.41625 -5.42125,-1.25 l 0,-4.4875 c 1.82375,1.19 3.4975,1.785 5.02125,1.785 0.86625,0 1.52,-0.23874 1.96,-0.7175 0.43875,-0.4775 0.6575,-1.12875 0.6575,-1.95125 0,-0.81124 -0.26125,-1.55375 -0.7825,-2.22625 -0.52375,-0.6725 -1.385,-1.42 -2.58625,-2.24375 -1.045,-0.7225 -1.8375,-1.415 -2.3775,-2.07625 -0.53875,-0.66125 -0.955,-1.40375 -1.24875,-2.22625 -0.29625,-0.82375 -0.4425,-1.78 -0.4425,-2.86875 0,-2.09125 0.58125,-3.7475 1.7425,-4.97125 1.16125,-1.2225 2.72125,-1.835 4.67875,-1.835 1.8675,0 3.66375,0.5225 5.38625,1.56875 l -1.5,3.63625 c -0.53375,-0.31125 -1.0925,-0.59 -1.67625,-0.83375 -0.58375,-0.245 -1.21,-0.3675 -1.87625,-0.3675 -0.73375,0 -1.29875,0.24125 -1.69375,0.725 -0.39375,0.48375 -0.5925,1.1425 -0.5925,1.97625 0,0.82375 0.23625,1.54126 0.71,2.1525 0.47125,0.61125 1.2975,1.30625 2.47625,2.085 1.59,1.06625 2.69875,2.1575 3.3275,3.26875 0.62875,1.1125 0.9425,2.38 0.9425,3.8025"
         style="fill:#bf1b2c;fill-opacity:1;fill-rule:nonzero;stroke:none"
         id="path4420"
         inkscape:connector-curvature="0" />
      <path
         inkscape:connector-curvature="0"
         id="path4422"
         style="fill:#bf1b2c;fill-opacity:1;fill-rule:nonzero;stroke:none"
         d="m 371.11716,705.93044 -4.43625,0 0,-18.58 4.43625,0 0,18.58 z m -4.62,-23.435 c 0,-0.73375 0.215,-1.31375 0.64375,-1.7425 0.42625,-0.4275 1.02375,-0.6425 1.79125,-0.6425 0.7225,0 1.30125,0.215 1.735,0.6425 0.43375,0.42875 0.65,1.00875 0.65,1.7425 0,0.75625 -0.22125,1.3425 -0.66625,1.76 -0.445,0.4175 -1.0175,0.625 -1.71875,0.625 -0.73375,0 -1.3225,-0.2075 -1.7675,-0.625 -0.445,-0.4175 -0.6675,-1.00375 -0.6675,-1.76" />
      <path
         d="m 378.80591,696.60631 c 0,1.935 0.2125,3.3975 0.63375,4.38625 0.42375,0.99 1.1025,1.485 2.035,1.485 1.78,0 2.67,-1.95749 2.67,-5.87125 0,-1.94625 -0.215,-3.4 -0.64375,-4.3625 -0.4275,-0.95999 -1.1025,-1.4425 -2.02625,-1.4425 -0.9325,0 -1.61125,0.48251 -2.035,1.4425 -0.42125,0.9625 -0.63375,2.41625 -0.63375,4.3625 m 9.875,0 c 0,3.04626 -0.64625,5.41875 -1.935,7.11375 -1.29,1.695 -3.0575,2.54375 -5.30375,2.54375 -1.42375,0 -2.68,-0.38875 -3.77,-1.1675 -1.08875,-0.77875 -1.92875,-1.89875 -2.51875,-3.36125 -0.58875,-1.46125 -0.88375,-3.17125 -0.88375,-5.12875 0,-3.01375 0.63875,-5.3675 1.91875,-7.06375 1.2775,-1.695 3.0525,-2.54375 5.32,-2.54375 2.19125,0 3.93375,0.865 5.22875,2.59375 1.295,1.72875 1.94375,4.0675 1.94375,7.01375"
         style="fill:#bf1b2c;fill-opacity:1;fill-rule:nonzero;stroke:none"
         id="path4426"
         inkscape:connector-curvature="0" />
      <path
         d="m 401.05578,705.92994 0,-11.075 c 0,-1.345 -0.16125,-2.3625 -0.48375,-3.0525 -0.3225,-0.68875 -0.845,-1.03375 -1.5675,-1.03375 -0.95624,0 -1.65624,0.475 -2.10125,1.42625 -0.445,0.95 -0.66625,2.555 -0.66625,4.8125 l 0,8.9225 -4.4375,0 0,-18.58 3.51875,0 0.53375,2.385 0.285,0 c 0.39875,-0.85625 0.97125,-1.52625 1.7175,-2.01 0.74375,-0.48375 1.6175,-0.72625 2.6175,-0.72625 1.69125,0 2.95625,0.57875 3.795,1.735 0.84,1.15625 1.25875,2.84625 1.25875,5.07 l 0,12.12625 -4.47,0 z"
         style="fill:#bf1b2c;fill-opacity:1;fill-rule:nonzero;stroke:none"
         id="path4430"
         inkscape:connector-curvature="0" />
    </g>
  </g>
</svg>
