  0
SECTION
  2
HEADER
  9
$ACADVER
  1
AC1014
  9
$HANDSEED
  5
FFFF
  9
$MEASUREMENT
 70
     1
  0
ENDSEC
  0
SECTION
  2
TABLES
  0
TABLE
  2
VPORT
  5
8
330
0
100
AcDbSymbolTable
 70
     4
  0
VPORT
  5
2E
330
8
100
AcDbSymbolTableRecord
100
AcDbViewportTableRecord
  2
*ACTIVE
 70
     0
 10
0.0
 20
0.0
 11
1.0
 21
1.0
 12
210.0
 22
148.5
 13
0.0
 23
0.0
 14
10.0
 24
10.0
 15
10.0
 25
10.0
 16
0.0
 26
0.0
 36
1.0
 17
0.0
 27
0.0
 37
0.0
 40
341.0
 41
1.24
 42
50.0
 43
0.0
 44
0.0
 50
0.0
 51
0.0
 71
     0
 72
   100
 73
     1
 74
     3
 75
     0
 76
     0
 77
     0
 78
     0
  0
ENDTAB
  0
TABLE
  2
LTYPE
  5
5
330
0
100
AcDbSymbolTable
 70
     1
  0
LTYPE
  5
14
330
5
100
AcDbSymbolTableRecord
100
AcDbLinetypeTableRecord
  2
BYBLOCK
 70
     0
  3

 72
    65
 73
     0
 40
0.0
  0
LTYPE
  5
15
330
5
100
AcDbSymbolTableRecord
100
AcDbLinetypeTableRecord
  2
BYLAYER
 70
     0
  3

 72
    65
 73
     0
 40
0.0
  0
LTYPE
  5
16
330
5
100
AcDbSymbolTableRecord
100
AcDbLinetypeTableRecord
  2
CONTINUOUS
 70
     0
  3
Solid line
 72
    65
 73
     0
 40
0.0
  0
ENDTAB
  0
TABLE
  2
LAYER
  5
2
100
AcDbSymbolTable
 70
2
  0
LAYER
  5
50
100
AcDbSymbolTableRecord
100
AcDbLayerTableRecord
  2
0
 70
0
  6
CONTINUOUS
  0
LAYER
  5
51
100
AcDbSymbolTableRecord
100
AcDbLayerTableRecord
  2
Layer_1
 70
0
  6
CONTINUOUS
  0
ENDTAB
  0
TABLE
  2
STYLE
  5
3
330
0
100
AcDbSymbolTable
 70
     1
  0
STYLE
  5
11
330
3
100
AcDbSymbolTableRecord
100
AcDbTextStyleTableRecord
  2
STANDARD
 70
     0
 40
0.0
 41
1.0
 50
0.0
 71
     0
 42
2.5
  3
txt
  4

  0
ENDTAB
  0
TABLE
  2
VIEW
  5
6
330
0
100
AcDbSymbolTable
 70
     0
  0
ENDTAB
  0
TABLE
  2
UCS
  5
7
330
0
100
AcDbSymbolTable
 70
     0
  0
ENDTAB
  0
TABLE
  2
APPID
  5
9
330
0
100
AcDbSymbolTable
 70
     2
  0
APPID
  5
12
330
9
100
AcDbSymbolTableRecord
100
AcDbRegAppTableRecord
  2
ACAD
 70
     0
  0
ENDTAB
  0
TABLE
  2
DIMSTYLE
  5
A
330
0
100
AcDbSymbolTable
 70
     1
  0
DIMSTYLE
105
27
330
A
100
AcDbSymbolTableRecord
100
AcDbDimStyleTableRecord
  2
ISO-25
 70
     0
  3

  4

  5

  6

  7

 40
1.0
 41
2.5
 42
0.625
 43
3.75
 44
1.25
 45
0.0
 46
0.0
 47
0.0
 48
0.0
140
2.5
141
2.5
142
0.0
143
0.03937007874016
144
1.0
145
0.0
146
1.0
147
0.625
 71
     0
 72
     0
 73
     0
 74
     0
 75
     0
 76
     0
 77
     1
 78
     8
170
     0
171
     3
172
     1
173
     0
174
     0
175
     0
176
     0
177
     0
178
     0
270
     2
271
     2
272
     2
273
     2
274
     3
340
11
275
     0
280
     0
281
     0
282
     0
283
     0
284
     8
285
     0
286
     0
287
     3
288
     0
  0
ENDTAB
  0
TABLE
  2
BLOCK_RECORD
  5
1
330
0
100
AcDbSymbolTable
 70
     1
  0
BLOCK_RECORD
  5
1F
330
1
100
AcDbSymbolTableRecord
100
AcDbBlockTableRecord
  2
*MODEL_SPACE
  0
BLOCK_RECORD
  5
1B
330
1
100
AcDbSymbolTableRecord
100
AcDbBlockTableRecord
  2
*PAPER_SPACE
  0
ENDTAB
  0
ENDSEC
  0
SECTION
  2
BLOCKS
  0
BLOCK
  5
20
330
1F
100
AcDbEntity
  8
0
100
AcDbBlockBegin
  2
*MODEL_SPACE
 70
     0
 10
0.0
 20
0.0
 30
0.0
  3
*MODEL_SPACE
  1

  0
ENDBLK
  5
21
330
1F
100
AcDbEntity
  8
0
100
AcDbBlockEnd
  0
BLOCK
  5
1C
330
1B
100
AcDbEntity
 67
     1
  8
0
100
AcDbBlockBegin
  2
*PAPER_SPACE
  1

  0
ENDBLK
  5
1D
330
1B
100
AcDbEntity
 67
     1
  8
0
100
AcDbBlockEnd
  0
ENDSEC
  0
SECTION
  2
ENTITIES
  0
LINE
  5
100
100
AcDbEntity
  8
Layer_1
 62
7
100
AcDbLine
 10
7.043613
 20
8.208732
 30
0.0
 11
7.190029
 21
7.755899
 31
0.0
  0
LINE
  5
101
100
AcDbEntity
  8
Layer_1
 62
7
100
AcDbLine
 10
7.190029
 20
7.755899
 30
0.0
 11
6.804529
 21
8.035065
 31
0.0
  0
LINE
  5
102
100
AcDbEntity
  8
Layer_1
 62
7
100
AcDbLine
 10
6.804529
 20
8.035065
 30
0.0
 11
6.419113
 21
7.755899
 31
0.0
  0
LINE
  5
103
100
AcDbEntity
  8
Layer_1
 62
7
100
AcDbLine
 10
6.419113
 20
7.755899
 30
0.0
 11
6.565529
 21
8.208732
 31
0.0
  0
LINE
  5
104
100
AcDbEntity
  8
Layer_1
 62
7
100
AcDbLine
 10
6.565529
 20
8.208732
 30
0.0
 11
6.180863
 21
8.488982
 31
0.0
  0
LINE
  5
105
100
AcDbEntity
  8
Layer_1
 62
7
100
AcDbLine
 10
6.180863
 20
8.488982
 30
0.0
 11
6.656779
 21
8.489735
 31
0.0
  0
LINE
  5
106
100
AcDbEntity
  8
Layer_1
 62
7
100
AcDbLine
 10
6.656779
 20
8.489735
 30
0.0
 11
6.804529
 21
8.942152
 31
0.0
  0
LINE
  5
107
100
AcDbEntity
  8
Layer_1
 62
7
100
AcDbLine
 10
6.804529
 20
8.942152
 30
0.0
 11
6.952279
 21
8.489735
 31
0.0
  0
LINE
  5
108
100
AcDbEntity
  8
Layer_1
 62
7
100
AcDbLine
 10
6.952279
 20
8.489735
 30
0.0
 11
7.428196
 21
8.489069
 31
0.0
  0
LINE
  5
109
100
AcDbEntity
  8
Layer_1
 62
7
100
AcDbLine
 10
7.428196
 20
8.489069
 30
0.0
 11
7.043613
 21
8.208735
 31
0.0
  0
LINE
  5
10a
100
AcDbEntity
  8
Layer_1
 62
7
100
AcDbLine
 10
7.043613
 20
8.208735
 30
0.0
 11
7.043613
 21
8.208732
 31
0.0
  0
LINE
  5
10b
100
AcDbEntity
  8
Layer_1
 62
7
100
AcDbLine
 10
10.189113
 20
6.538732
 30
0.0
 11
11.159446
 21
7.403899
 31
0.0
  0
LINE
  5
10c
100
AcDbEntity
  8
Layer_1
 62
7
100
AcDbLine
 10
11.159446
 20
7.403899
 30
0.0
 11
10.573945
 21
8.817315
 31
0.0
  0
LINE
  5
10d
100
AcDbEntity
  8
Layer_1
 62
7
100
AcDbLine
 10
10.573945
 20
8.817315
 30
0.0
 11
9.310446
 21
8.744982
 31
0.0
  0
SPLINE
  5
10e
100
AcDbEntity
  8
Layer_1
 62
7
100
AcDbSpline
 70
8
 71
3
 72
8
 73
4
 74
0
 40
0
 40
0
 40
0
 40
0
 40
1
 40
1
 40
1
 40
1
 10
9.310446
 20
8.744982
 30
0.0
 10
9.123945
 20
8.982565
 30
0.0
 10
8.914446
 20
9.196899
 30
0.0
 10
8.685945
 20
9.385482
 30
0.0
  0
LINE
  5
10f
100
AcDbEntity
  8
Layer_1
 62
7
100
AcDbLine
 10
8.685945
 20
9.385482
 30
0.0
 11
8.760446
 21
10.684399
 31
0.0
  0
LINE
  5
110
100
AcDbEntity
  8
Layer_1
 62
7
100
AcDbLine
 10
8.760446
 20
10.684399
 30
0.0
 11
7.346946
 21
11.269899
 31
0.0
  0
LINE
  5
111
100
AcDbEntity
  8
Layer_1
 62
7
100
AcDbLine
 10
7.346946
 20
11.269899
 30
0.0
 11
6.498113
 21
10.317815
 31
0.0
  0
SPLINE
  5
112
100
AcDbEntity
  8
Layer_1
 62
7
100
AcDbSpline
 70
8
 71
3
 72
8
 73
4
 74
0
 40
0
 40
0
 40
0
 40
0
 40
1
 40
1
 40
1
 40
1
 10
6.498113
 20
10.317815
 30
0.0
 10
6.208613
 20
10.351565
 30
0.0
 10
5.913946
 20
10.355565
 30
0.0
 10
5.618613
 20
10.327232
 30
0.0
  0
LINE
  5
113
100
AcDbEntity
  8
Layer_1
 62
7
100
AcDbLine
 10
5.618613
 20
10.327232
 30
0.0
 11
4.744363
 21
11.307732
 31
0.0
  0
LINE
  5
114
100
AcDbEntity
  8
Layer_1
 62
7
100
AcDbLine
 10
4.744363
 20
11.307732
 30
0.0
 11
3.330946
 21
10.722232
 31
0.0
  0
LINE
  5
115
100
AcDbEntity
  8
Layer_1
 62
7
100
AcDbLine
 10
3.330946
 20
10.722232
 30
0.0
 11
3.404946
 21
9.430315
 31
0.0
  0
SPLINE
  5
116
100
AcDbEntity
  8
Layer_1
 62
7
100
AcDbSpline
 70
8
 71
3
 72
8
 73
4
 74
0
 40
0
 40
0
 40
0
 40
0
 40
1
 40
1
 40
1
 40
1
 10
3.404946
 20
9.430315
 30
0.0
 10
3.179695
 20
9.250649
 30
0.0
 10
2.975863
 20
9.050232
 30
0.0
 10
2.795363
 20
8.832399
 30
0.0
  0
LINE
  5
117
100
AcDbEntity
  8
Layer_1
 62
7
100
AcDbLine
 10
2.795363
 20
8.832399
 30
0.0
 11
1.463862
 21
8.908649
 31
0.0
  0
LINE
  5
118
100
AcDbEntity
  8
Layer_1
 62
7
100
AcDbLine
 10
1.463862
 20
8.908649
 30
0.0
 11
0.878445
 21
7.495232
 31
0.0
  0
LINE
  5
119
100
AcDbEntity
  8
Layer_1
 62
7
100
AcDbLine
 10
0.878445
 20
7.495232
 30
0.0
 11
1.855862
 21
6.623732
 31
0.0
  0
SPLINE
  5
11a
100
AcDbEntity
  8
Layer_1
 62
7
100
AcDbSpline
 70
8
 71
3
 72
8
 73
4
 74
0
 40
0
 40
0
 40
0
 40
0
 40
1
 40
1
 40
1
 40
1
 10
1.855862
 20
6.623732
 30
0.0
 10
1.824195
 20
6.342815
 30
0.0
 10
1.820362
 20
6.057149
 30
0.0
 10
1.847029
 20
5.770815
 30
0.0
  0
LINE
  5
11b
100
AcDbEntity
  8
Layer_1
 62
7
100
AcDbLine
 10
1.847029
 20
5.770815
 30
0.0
 11
1.841195
 21
5.784815
 31
0.0
  0
LINE
  5
11c
100
AcDbEntity
  8
Layer_1
 62
7
100
AcDbLine
 10
1.841195
 20
5.784815
 30
0.0
 11
0.840611
 21
4.892649
 31
0.0
  0
LINE
  5
11d
100
AcDbEntity
  8
Layer_1
 62
7
100
AcDbLine
 10
0.840611
 20
4.892649
 30
0.0
 11
1.426029
 21
3.479232
 31
0.0
  0
LINE
  5
11e
100
AcDbEntity
  8
Layer_1
 62
7
100
AcDbLine
 10
1.426029
 20
3.479232
 30
0.0
 11
2.736445
 21
3.554315
 31
0.0
  0
LINE
  5
11f
100
AcDbEntity
  8
Layer_1
 62
7
100
AcDbLine
 10
2.736445
 20
3.554315
 30
0.0
 11
4.152195
 21
5.894899
 31
0.0
  0
LINE
  5
120
100
AcDbEntity
  8
Layer_1
 62
7
100
AcDbLine
 10
4.152195
 20
5.894899
 30
0.0
 11
4.152195
 21
8.128649
 31
0.0
  0
LINE
  5
121
100
AcDbEntity
  8
Layer_1
 62
7
100
AcDbLine
 10
4.152195
 20
8.128649
 30
0.0
 11
4.879029
 21
8.961815
 31
0.0
  0
LINE
  5
122
100
AcDbEntity
  8
Layer_1
 62
7
100
AcDbLine
 10
4.879029
 20
8.961815
 30
0.0
 11
5.605861
 21
8.128649
 31
0.0
  0
LINE
  5
123
100
AcDbEntity
  8
Layer_1
 62
7
100
AcDbLine
 10
5.605861
 20
8.128649
 30
0.0
 11
5.605861
 21
6.958565
 31
0.0
  0
LINE
  5
124
100
AcDbEntity
  8
Layer_1
 62
7
100
AcDbLine
 10
5.605861
 20
6.958565
 30
0.0
 11
7.307695
 21
6.958565
 31
0.0
  0
LINE
  5
125
100
AcDbEntity
  8
Layer_1
 62
7
100
AcDbLine
 10
7.307695
 20
6.958565
 30
0.0
 11
7.307695
 21
5.433982
 31
0.0
  0
LINE
  5
126
100
AcDbEntity
  8
Layer_1
 62
7
100
AcDbLine
 10
7.307695
 20
5.433982
 30
0.0
 11
8.495445
 21
5.451732
 31
0.0
  0
LINE
  5
127
100
AcDbEntity
  8
Layer_1
 62
7
100
AcDbLine
 10
8.495445
 20
5.451732
 30
0.0
 11
8.495445
 21
4.405815
 31
0.0
  0
LINE
  5
128
100
AcDbEntity
  8
Layer_1
 62
7
100
AcDbLine
 10
8.495445
 20
4.405815
 30
0.0
 11
9.197445
 21
3.464982
 31
0.0
  0
LINE
  5
129
100
AcDbEntity
  8
Layer_1
 62
7
100
AcDbLine
 10
9.197445
 20
3.464982
 30
0.0
 11
9.225362
 21
3.464582
 31
0.0
  0
LINE
  5
12a
100
AcDbEntity
  8
Layer_1
 62
7
100
AcDbLine
 10
9.225362
 20
3.464582
 30
0.0
 11
9.225962
 21
3.462995
 31
0.0
  0
LINE
  5
12b
100
AcDbEntity
  8
Layer_1
 62
7
100
AcDbLine
 10
9.225962
 20
3.462995
 30
0.0
 11
10.536129
 21
3.387912
 31
0.0
  0
LINE
  5
12c
100
AcDbEntity
  8
Layer_1
 62
7
100
AcDbLine
 10
10.536129
 20
3.387912
 30
0.0
 11
11.121629
 21
4.801329
 31
0.0
  0
LINE
  5
12d
100
AcDbEntity
  8
Layer_1
 62
7
100
AcDbLine
 10
11.121629
 20
4.801329
 30
0.0
 11
10.173629
 21
5.646579
 31
0.0
  0
SPLINE
  5
12e
100
AcDbEntity
  8
Layer_1
 62
7
100
AcDbSpline
 70
8
 71
3
 72
8
 73
4
 74
0
 40
0
 40
0
 40
0
 40
0
 40
1
 40
1
 40
1
 40
1
 10
10.173629
 20
5.646579
 30
0.0
 10
10.209962
 20
5.940079
 30
0.0
 10
10.216545
 20
6.238912
 30
0.0
 10
10.189129
 20
6.538745
 30
0.0
  0
LINE
  5
12f
100
AcDbEntity
  8
Layer_1
 62
7
100
AcDbLine
 10
1.140804
 20
0.714532
 30
0.0
 11
0.840554
 21
0.714532
 31
0.0
  0
LINE
  5
130
100
AcDbEntity
  8
Layer_1
 62
7
100
AcDbLine
 10
0.840554
 20
0.714532
 30
0.0
 11
0.840554
 21
2.340199
 31
0.0
  0
LINE
  5
131
100
AcDbEntity
  8
Layer_1
 62
7
100
AcDbLine
 10
0.840554
 20
2.340199
 30
0.0
 11
1.568887
 21
2.340199
 31
0.0
  0
LINE
  5
132
100
AcDbEntity
  8
Layer_1
 62
7
100
AcDbLine
 10
1.568887
 20
2.340199
 30
0.0
 11
1.568887
 21
2.078865
 31
0.0
  0
LINE
  5
133
100
AcDbEntity
  8
Layer_1
 62
7
100
AcDbLine
 10
1.568887
 20
2.078865
 30
0.0
 11
1.140804
 21
2.078865
 31
0.0
  0
LINE
  5
134
100
AcDbEntity
  8
Layer_1
 62
7
100
AcDbLine
 10
1.140804
 20
2.078865
 30
0.0
 11
1.140804
 21
1.627449
 31
0.0
  0
LINE
  5
135
100
AcDbEntity
  8
Layer_1
 62
7
100
AcDbLine
 10
1.140804
 20
1.627449
 30
0.0
 11
1.539971
 21
1.627449
 31
0.0
  0
LINE
  5
136
100
AcDbEntity
  8
Layer_1
 62
7
100
AcDbLine
 10
1.539971
 20
1.627449
 30
0.0
 11
1.539971
 21
1.366115
 31
0.0
  0
LINE
  5
137
100
AcDbEntity
  8
Layer_1
 62
7
100
AcDbLine
 10
1.539971
 20
1.366115
 30
0.0
 11
1.140804
 21
1.366115
 31
0.0
  0
LINE
  5
138
100
AcDbEntity
  8
Layer_1
 62
7
100
AcDbLine
 10
1.140804
 20
1.366115
 30
0.0
 11
1.140804
 21
0.714532
 31
0.0
  0
LINE
  5
139
100
AcDbEntity
  8
Layer_1
 62
7
100
AcDbLine
 10
1.140804
 20
0.714532
 30
0.0
 11
1.140804
 21
0.714532
 31
0.0
  0
SPLINE
  5
13a
100
AcDbEntity
  8
Layer_1
 62
7
100
AcDbSpline
 70
8
 71
3
 72
8
 73
4
 74
0
 40
0
 40
0
 40
0
 40
0
 40
1
 40
1
 40
1
 40
1
 10
2.104855
 20
0.923599
 30
0.0
 10
2.159021
 20
0.923599
 30
0.0
 10
2.202105
 20
0.947849
 30
0.0
 10
2.234438
 20
0.996432
 30
0.0
  0
SPLINE
  5
13b
100
AcDbEntity
  8
Layer_1
 62
7
100
AcDbSpline
 70
8
 71
3
 72
8
 73
4
 74
0
 40
0
 40
0
 40
0
 40
0
 40
1
 40
1
 40
1
 40
1
 10
2.234438
 20
0.996432
 30
0.0
 10
2.266605
 20
1.045015
 30
0.0
 10
2.282771
 20
1.109682
 30
0.0
 10
2.282771
 20
1.190432
 30
0.0
  0
LINE
  5
13c
100
AcDbEntity
  8
Layer_1
 62
7
100
AcDbLine
 10
2.282771
 20
1.190432
 30
0.0
 11
2.282771
 21
1.294932
 31
0.0
  0
LINE
  5
13d
100
AcDbEntity
  8
Layer_1
 62
7
100
AcDbLine
 10
2.282771
 20
1.294932
 30
0.0
 11
2.191605
 21
1.290519
 31
0.0
  0
SPLINE
  5
13e
100
AcDbEntity
  8
Layer_1
 62
7
100
AcDbSpline
 70
8
 71
3
 72
8
 73
4
 74
0
 40
0
 40
0
 40
0
 40
0
 40
1
 40
1
 40
1
 40
1
 10
2.191605
 20
1.290519
 30
0.0
 10
2.124105
 20
1.286852
 30
0.0
 10
2.074605
 20
1.267519
 30
0.0
 10
2.043105
 20
1.232685
 30
0.0
  0
SPLINE
  5
13f
100
AcDbEntity
  8
Layer_1
 62
7
100
AcDbSpline
 70
8
 71
3
 72
8
 73
4
 74
0
 40
0
 40
0
 40
0
 40
0
 40
1
 40
1
 40
1
 40
1
 10
2.043105
 20
1.232685
 30
0.0
 10
2.011605
 20
1.197852
 30
0.0
 10
1.995938
 20
1.146019
 30
0.0
 10
1.995938
 20
1.077019
 30
0.0
  0
SPLINE
  5
140
100
AcDbEntity
  8
Layer_1
 62
7
100
AcDbSpline
 70
8
 71
3
 72
8
 73
4
 74
0
 40
0
 40
0
 40
0
 40
0
 40
1
 40
1
 40
1
 40
1
 10
1.995938
 20
1.077019
 30
0.0
 10
1.995938
 20
0.974769
 30
0.0
 10
2.032188
 20
0.923602
 30
0.0
 10
2.104855
 20
0.923602
 30
0.0
  0
LINE
  5
141
100
AcDbEntity
  8
Layer_1
 62
7
100
AcDbLine
 10
2.361688
 20
0.714519
 30
0.0
 11
2.302771
 21
0.883602
 31
0.0
  0
LINE
  5
142
100
AcDbEntity
  8
Layer_1
 62
7
100
AcDbLine
 10
2.302771
 20
0.883602
 30
0.0
 11
2.296105
 21
0.883602
 31
0.0
  0
SPLINE
  5
143
100
AcDbEntity
  8
Layer_1
 62
7
100
AcDbSpline
 70
8
 71
3
 72
8
 73
4
 74
0
 40
0
 40
0
 40
0
 40
0
 40
1
 40
1
 40
1
 40
1
 10
2.296105
 20
0.883602
 30
0.0
 10
2.252355
 20
0.810852
 30
0.0
 10
2.207188
 20
0.760852
 30
0.0
 10
2.160521
 20
0.733435
 30
0.0
  0
SPLINE
  5
144
100
AcDbEntity
  8
Layer_1
 62
7
100
AcDbSpline
 70
8
 71
3
 72
8
 73
4
 74
0
 40
0
 40
0
 40
0
 40
0
 40
1
 40
1
 40
1
 40
1
 10
2.160521
 20
0.733435
 30
0.0
 10
2.113771
 20
0.706019
 30
0.0
 10
2.054855
 20
0.692269
 30
0.0
 10
1.983688
 20
0.692269
 30
0.0
  0
SPLINE
  5
145
100
AcDbEntity
  8
Layer_1
 62
7
100
AcDbSpline
 70
8
 71
3
 72
8
 73
4
 74
0
 40
0
 40
0
 40
0
 40
0
 40
1
 40
1
 40
1
 40
1
 10
1.983688
 20
0.692269
 30
0.0
 10
1.892521
 20
0.692269
 30
0.0
 10
1.820771
 20
0.726352
 30
0.0
 10
1.768521
 20
0.794602
 30
0.0
  0
SPLINE
  5
146
100
AcDbEntity
  8
Layer_1
 62
7
100
AcDbSpline
 70
8
 71
3
 72
8
 73
4
 74
0
 40
0
 40
0
 40
0
 40
0
 40
1
 40
1
 40
1
 40
1
 10
1.768521
 20
0.794602
 30
0.0
 10
1.716271
 20
0.862769
 30
0.0
 10
1.690105
 20
0.957685
 30
0.0
 10
1.690105
 20
1.079269
 30
0.0
  0
SPLINE
  5
147
100
AcDbEntity
  8
Layer_1
 62
7
100
AcDbSpline
 70
8
 71
3
 72
8
 73
4
 74
0
 40
0
 40
0
 40
0
 40
0
 40
1
 40
1
 40
1
 40
1
 10
1.690105
 20
1.079269
 30
0.0
 10
1.690105
 20
1.209685
 30
0.0
 10
1.725855
 20
1.306602
 30
0.0
 10
1.797438
 20
1.370019
 30
0.0
  0
SPLINE
  5
148
100
AcDbEntity
  8
Layer_1
 62
7
100
AcDbSpline
 70
8
 71
3
 72
8
 73
4
 74
0
 40
0
 40
0
 40
0
 40
0
 40
1
 40
1
 40
1
 40
1
 10
1.797438
 20
1.370019
 30
0.0
 10
1.868938
 20
1.433435
 30
0.0
 10
1.975855
 20
1.468435
 30
0.0
 10
2.118188
 20
1.475102
 30
0.0
  0
LINE
  5
149
100
AcDbEntity
  8
Layer_1
 62
7
100
AcDbLine
 10
2.118188
 20
1.475102
 30
0.0
 11
2.282771
 21
1.481769
 31
0.0
  0
LINE
  5
14a
100
AcDbEntity
  8
Layer_1
 62
7
100
AcDbLine
 10
2.282771
 20
1.481769
 30
0.0
 11
2.282771
 21
1.570685
 31
0.0
  0
SPLINE
  5
14b
100
AcDbEntity
  8
Layer_1
 62
7
100
AcDbSpline
 70
8
 71
3
 72
8
 73
4
 74
0
 40
0
 40
0
 40
0
 40
0
 40
1
 40
1
 40
1
 40
1
 10
2.282771
 20
1.570685
 30
0.0
 10
2.282771
 20
1.686435
 30
0.0
 10
2.232771
 20
1.744185
 30
0.0
 10
2.132688
 20
1.744185
 30
0.0
  0
SPLINE
  5
14c
100
AcDbEntity
  8
Layer_1
 62
7
100
AcDbSpline
 70
8
 71
3
 72
8
 73
4
 74
0
 40
0
 40
0
 40
0
 40
0
 40
1
 40
1
 40
1
 40
1
 10
2.132688
 20
1.744185
 30
0.0
 10
2.058521
 20
1.744185
 30
0.0
 10
1.973271
 20
1.715269
 30
0.0
 10
1.876938
 20
1.657435
 30
0.0
  0
LINE
  5
14d
100
AcDbEntity
  8
Layer_1
 62
7
100
AcDbLine
 10
1.876938
 20
1.657435
 30
0.0
 11
1.774605
 21
1.862102
 31
0.0
  0
SPLINE
  5
14e
100
AcDbEntity
  8
Layer_1
 62
7
100
AcDbSpline
 70
8
 71
3
 72
8
 73
4
 74
0
 40
0
 40
0
 40
0
 40
0
 40
1
 40
1
 40
1
 40
1
 10
1.774605
 20
1.862102
 30
0.0
 10
1.897687
 20
1.939935
 30
0.0
 10
2.031521
 20
1.978852
 30
0.0
 10
2.176021
 20
1.978852
 30
0.0
  0
SPLINE
  5
14f
100
AcDbEntity
  8
Layer_1
 62
7
100
AcDbSpline
 70
8
 71
3
 72
8
 73
4
 74
0
 40
0
 40
0
 40
0
 40
0
 40
1
 40
1
 40
1
 40
1
 10
2.176021
 20
1.978852
 30
0.0
 10
2.307271
 20
1.978852
 30
0.0
 10
2.407105
 20
1.941185
 30
0.0
 10
2.475688
 20
1.865935
 30
0.0
  0
SPLINE
  5
150
100
AcDbEntity
  8
Layer_1
 62
7
100
AcDbSpline
 70
8
 71
3
 72
8
 73
4
 74
0
 40
0
 40
0
 40
0
 40
0
 40
1
 40
1
 40
1
 40
1
 10
2.475688
 20
1.865935
 30
0.0
 10
2.544271
 20
1.790685
 30
0.0
 10
2.578605
 20
1.684185
 30
0.0
 10
2.578605
 20
1.546269
 30
0.0
  0
LINE
  5
151
100
AcDbEntity
  8
Layer_1
 62
7
100
AcDbLine
 10
2.578605
 20
1.546269
 30
0.0
 11
2.578605
 21
0.714519
 31
0.0
  0
LINE
  5
152
100
AcDbEntity
  8
Layer_1
 62
7
100
AcDbLine
 10
2.578605
 20
0.714519
 30
0.0
 11
2.361687
 21
0.714519
 31
0.0
  0
LINE
  5
153
100
AcDbEntity
  8
Layer_1
 62
7
100
AcDbLine
 10
2.361687
 20
0.714519
 30
0.0
 11
2.361688
 21
0.714519
 31
0.0
  0
SPLINE
  5
154
100
AcDbEntity
  8
Layer_1
 62
7
100
AcDbSpline
 70
8
 71
3
 72
8
 73
4
 74
0
 40
0
 40
0
 40
0
 40
0
 40
1
 40
1
 40
1
 40
1
 10
3.274629
 20
1.725299
 30
0.0
 10
3.218295
 20
1.725299
 30
0.0
 10
3.177712
 20
1.698965
 30
0.0
 10
3.152879
 20
1.646382
 30
0.0
  0
SPLINE
  5
155
100
AcDbEntity
  8
Layer_1
 62
7
100
AcDbSpline
 70
8
 71
3
 72
8
 73
4
 74
0
 40
0
 40
0
 40
0
 40
0
 40
1
 40
1
 40
1
 40
1
 10
3.152879
 20
1.646382
 30
0.0
 10
3.128045
 20
1.593715
 30
0.0
 10
3.114879
 20
1.501049
 30
0.0
 10
3.113379
 20
1.368299
 30
0.0
  0
LINE
  5
156
100
AcDbEntity
  8
Layer_1
 62
7
100
AcDbLine
 10
3.113379
 20
1.368299
 30
0.0
 11
3.113379
 21
1.338299
 31
0.0
  0
SPLINE
  5
157
100
AcDbEntity
  8
Layer_1
 62
7
100
AcDbSpline
 70
8
 71
3
 72
8
 73
4
 74
0
 40
0
 40
0
 40
0
 40
0
 40
1
 40
1
 40
1
 40
1
 10
3.113379
 20
1.338299
 30
0.0
 10
3.113379
 20
1.194465
 30
0.0
 10
3.126129
 20
1.093299
 30
0.0
 10
3.151796
 20
1.034799
 30
0.0
  0
SPLINE
  5
158
100
AcDbEntity
  8
Layer_1
 62
7
100
AcDbSpline
 70
8
 71
3
 72
8
 73
4
 74
0
 40
0
 40
0
 40
0
 40
0
 40
1
 40
1
 40
1
 40
1
 10
3.151796
 20
1.034799
 30
0.0
 10
3.177379
 20
0.976215
 30
0.0
 10
3.219046
 20
0.946882
 30
0.0
 10
3.276879
 20
0.946882
 30
0.0
  0
SPLINE
  5
159
100
AcDbEntity
  8
Layer_1
 62
7
100
AcDbSpline
 70
8
 71
3
 72
8
 73
4
 74
0
 40
0
 40
0
 40
0
 40
0
 40
1
 40
1
 40
1
 40
1
 10
3.276879
 20
0.946882
 30
0.0
 10
3.383629
 20
0.946882
 30
0.0
 10
3.436963
 20
1.078132
 30
0.0
 10
3.436963
 20
1.340549
 30
0.0
  0
SPLINE
  5
15a
100
AcDbEntity
  8
Layer_1
 62
7
100
AcDbSpline
 70
8
 71
3
 72
8
 73
4
 74
0
 40
0
 40
0
 40
0
 40
0
 40
1
 40
1
 40
1
 40
1
 10
3.436963
 20
1.340549
 30
0.0
 10
3.436963
 20
1.597049
 30
0.0
 10
3.382879
 20
1.725299
 30
0.0
 10
3.274629
 20
1.725299
 30
0.0
  0
SPLINE
  5
15b
100
AcDbEntity
  8
Layer_1
 62
7
100
AcDbSpline
 70
8
 71
3
 72
8
 73
4
 74
0
 40
0
 40
0
 40
0
 40
0
 40
1
 40
1
 40
1
 40
1
 10
3.376963
 20
1.976549
 30
0.0
 10
3.489629
 20
1.976549
 30
0.0
 10
3.578213
 20
1.920632
 30
0.0
 10
3.642713
 20
1.808632
 30
0.0
  0
SPLINE
  5
15c
100
AcDbEntity
  8
Layer_1
 62
7
100
AcDbSpline
 70
8
 71
3
 72
8
 73
4
 74
0
 40
0
 40
0
 40
0
 40
0
 40
1
 40
1
 40
1
 40
1
 10
3.642713
 20
1.808632
 30
0.0
 10
3.707129
 20
1.696715
 30
0.0
 10
3.739463
 20
1.539215
 30
0.0
 10
3.739463
 20
1.336132
 30
0.0
  0
SPLINE
  5
15d
100
AcDbEntity
  8
Layer_1
 62
7
100
AcDbSpline
 70
8
 71
3
 72
8
 73
4
 74
0
 40
0
 40
0
 40
0
 40
0
 40
1
 40
1
 40
1
 40
1
 10
3.739463
 20
1.336132
 30
0.0
 10
3.739463
 20
1.130799
 30
0.0
 10
3.706963
 20
0.972132
 30
0.0
 10
3.642129
 20
0.860215
 30
0.0
  0
SPLINE
  5
15e
100
AcDbEntity
  8
Layer_1
 62
7
100
AcDbSpline
 70
8
 71
3
 72
8
 73
4
 74
0
 40
0
 40
0
 40
0
 40
0
 40
1
 40
1
 40
1
 40
1
 10
3.642129
 20
0.860215
 30
0.0
 10
3.577213
 20
0.748299
 30
0.0
 10
3.487379
 20
0.692299
 30
0.0
 10
3.372463
 20
0.692299
 30
0.0
  0
SPLINE
  5
15f
100
AcDbEntity
  8
Layer_1
 62
7
100
AcDbSpline
 70
8
 71
3
 72
8
 73
4
 74
0
 40
0
 40
0
 40
0
 40
0
 40
1
 40
1
 40
1
 40
1
 10
3.372463
 20
0.692299
 30
0.0
 10
3.316879
 20
0.692299
 30
0.0
 10
3.267796
 20
0.704299
 30
0.0
 10
3.225129
 20
0.728382
 30
0.0
  0
SPLINE
  5
160
100
AcDbEntity
  8
Layer_1
 62
7
100
AcDbSpline
 70
8
 71
3
 72
8
 73
4
 74
0
 40
0
 40
0
 40
0
 40
0
 40
1
 40
1
 40
1
 40
1
 10
3.225129
 20
0.728382
 30
0.0
 10
3.182546
 20
0.752465
 30
0.0
 10
3.142296
 20
0.794965
 30
0.0
 10
3.104463
 20
0.855715
 30
0.0
  0
LINE
  5
161
100
AcDbEntity
  8
Layer_1
 62
7
100
AcDbLine
 10
3.104463
 20
0.855715
 30
0.0
 11
3.085546
 21
0.855715
 31
0.0
  0
LINE
  5
162
100
AcDbEntity
  8
Layer_1
 62
7
100
AcDbLine
 10
3.085546
 20
0.855715
 30
0.0
 11
3.035546
 21
0.714549
 31
0.0
  0
LINE
  5
163
100
AcDbEntity
  8
Layer_1
 62
7
100
AcDbLine
 10
3.035546
 20
0.714549
 30
0.0
 11
2.817629
 21
0.714549
 31
0.0
  0
LINE
  5
164
100
AcDbEntity
  8
Layer_1
 62
7
100
AcDbLine
 10
2.817629
 20
0.714549
 30
0.0
 11
2.817629
 21
2.444715
 31
0.0
  0
LINE
  5
165
100
AcDbEntity
  8
Layer_1
 62
7
100
AcDbLine
 10
2.817629
 20
2.444715
 30
0.0
 11
3.113379
 21
2.444715
 31
0.0
  0
LINE
  5
166
100
AcDbEntity
  8
Layer_1
 62
7
100
AcDbLine
 10
3.113379
 20
2.444715
 30
0.0
 11
3.113379
 21
2.039965
 31
0.0
  0
SPLINE
  5
167
100
AcDbEntity
  8
Layer_1
 62
7
100
AcDbSpline
 70
8
 71
3
 72
8
 73
4
 74
0
 40
0
 40
0
 40
0
 40
0
 40
1
 40
1
 40
1
 40
1
 10
3.113379
 20
2.039965
 30
0.0
 10
3.113379
 20
2.022882
 30
0.0
 10
3.113046
 20
2.005132
 30
0.0
 10
3.112293
 20
1.986632
 30
0.0
  0
SPLINE
  5
168
100
AcDbEntity
  8
Layer_1
 62
7
100
AcDbSpline
 70
8
 71
3
 72
8
 73
4
 74
0
 40
0
 40
0
 40
0
 40
0
 40
1
 40
1
 40
1
 40
1
 10
3.112293
 20
1.986632
 30
0.0
 10
3.111546
 20
1.968049
 30
0.0
 10
3.106706
 20
1.903215
 30
0.0
 10
3.097876
 20
1.791965
 30
0.0
  0
LINE
  5
169
100
AcDbEntity
  8
Layer_1
 62
7
100
AcDbLine
 10
3.097876
 20
1.791965
 30
0.0
 11
3.113376
 21
1.791965
 31
0.0
  0
SPLINE
  5
16a
100
AcDbEntity
  8
Layer_1
 62
7
100
AcDbSpline
 70
8
 71
3
 72
8
 73
4
 74
0
 40
0
 40
0
 40
0
 40
0
 40
1
 40
1
 40
1
 40
1
 10
3.113376
 20
1.791965
 30
0.0
 10
3.149709
 20
1.860132
 30
0.0
 10
3.188959
 20
1.907965
 30
0.0
 10
3.231293
 20
1.935465
 30
0.0
  0
SPLINE
  5
16b
100
AcDbEntity
  8
Layer_1
 62
7
100
AcDbSpline
 70
8
 71
3
 72
8
 73
4
 74
0
 40
0
 40
0
 40
0
 40
0
 40
1
 40
1
 40
1
 40
1
 10
3.231293
 20
1.935465
 30
0.0
 10
3.273543
 20
1.962882
 30
0.0
 10
3.322043
 20
1.976549
 30
0.0
 10
3.376959
 20
1.976549
 30
0.0
  0
LINE
  5
16c
100
AcDbEntity
  8
Layer_1
 62
7
100
AcDbLine
 10
3.965121
 20
0.714532
 30
0.0
 11
3.965121
 21
2.340199
 31
0.0
  0
LINE
  5
16d
100
AcDbEntity
  8
Layer_1
 62
7
100
AcDbLine
 10
3.965121
 20
2.340199
 30
0.0
 11
4.267538
 21
2.340199
 31
0.0
  0
LINE
  5
16e
100
AcDbEntity
  8
Layer_1
 62
7
100
AcDbLine
 10
4.267538
 20
2.340199
 30
0.0
 11
4.267538
 21
0.979199
 31
0.0
  0
LINE
  5
16f
100
AcDbEntity
  8
Layer_1
 62
7
100
AcDbLine
 10
4.267538
 20
0.979199
 30
0.0
 11
4.686705
 21
0.979199
 31
0.0
  0
LINE
  5
170
100
AcDbEntity
  8
Layer_1
 62
7
100
AcDbLine
 10
4.686705
 20
0.979199
 30
0.0
 11
4.686705
 21
0.714532
 31
0.0
  0
LINE
  5
171
100
AcDbEntity
  8
Layer_1
 62
7
100
AcDbLine
 10
4.686705
 20
0.714532
 30
0.0
 11
3.965121
 21
0.714532
 31
0.0
  0
LINE
  5
172
100
AcDbEntity
  8
Layer_1
 62
7
100
AcDbLine
 10
3.965121
 20
0.714532
 30
0.0
 11
3.965121
 21
0.714532
 31
0.0
  0
SPLINE
  5
173
100
AcDbEntity
  8
Layer_1
 62
7
100
AcDbSpline
 70
8
 71
3
 72
8
 73
4
 74
0
 40
0
 40
0
 40
0
 40
0
 40
1
 40
1
 40
1
 40
1
 10
5.212679
 20
0.923599
 30
0.0
 10
5.266762
 20
0.923599
 30
0.0
 10
5.309929
 20
0.947849
 30
0.0
 10
5.342179
 20
0.996432
 30
0.0
  0
SPLINE
  5
174
100
AcDbEntity
  8
Layer_1
 62
7
100
AcDbSpline
 70
8
 71
3
 72
8
 73
4
 74
0
 40
0
 40
0
 40
0
 40
0
 40
1
 40
1
 40
1
 40
1
 10
5.342179
 20
0.996432
 30
0.0
 10
5.374513
 20
1.045015
 30
0.0
 10
5.390595
 20
1.109682
 30
0.0
 10
5.390595
 20
1.190432
 30
0.0
  0
LINE
  5
175
100
AcDbEntity
  8
Layer_1
 62
7
100
AcDbLine
 10
5.390595
 20
1.190432
 30
0.0
 11
5.390595
 21
1.294932
 31
0.0
  0
LINE
  5
176
100
AcDbEntity
  8
Layer_1
 62
7
100
AcDbLine
 10
5.390595
 20
1.294932
 30
0.0
 11
5.299429
 21
1.290519
 31
0.0
  0
SPLINE
  5
177
100
AcDbEntity
  8
Layer_1
 62
7
100
AcDbSpline
 70
8
 71
3
 72
8
 73
4
 74
0
 40
0
 40
0
 40
0
 40
0
 40
1
 40
1
 40
1
 40
1
 10
5.299429
 20
1.290519
 30
0.0
 10
5.231929
 20
1.286852
 30
0.0
 10
5.182512
 20
1.267519
 30
0.0
 10
5.150929
 20
1.232685
 30
0.0
  0
SPLINE
  5
178
100
AcDbEntity
  8
Layer_1
 62
7
100
AcDbSpline
 70
8
 71
3
 72
8
 73
4
 74
0
 40
0
 40
0
 40
0
 40
0
 40
1
 40
1
 40
1
 40
1
 10
5.150929
 20
1.232685
 30
0.0
 10
5.119429
 20
1.197852
 30
0.0
 10
5.103762
 20
1.146019
 30
0.0
 10
5.103762
 20
1.077019
 30
0.0
  0
SPLINE
  5
179
100
AcDbEntity
  8
Layer_1
 62
7
100
AcDbSpline
 70
8
 71
3
 72
8
 73
4
 74
0
 40
0
 40
0
 40
0
 40
0
 40
1
 40
1
 40
1
 40
1
 10
5.103762
 20
1.077019
 30
0.0
 10
5.103762
 20
0.974769
 30
0.0
 10
5.140012
 20
0.923602
 30
0.0
 10
5.212679
 20
0.923602
 30
0.0
  0
LINE
  5
17a
100
AcDbEntity
  8
Layer_1
 62
7
100
AcDbLine
 10
5.469596
 20
0.714519
 30
0.0
 11
5.410596
 21
0.883602
 31
0.0
  0
LINE
  5
17b
100
AcDbEntity
  8
Layer_1
 62
7
100
AcDbLine
 10
5.410596
 20
0.883602
 30
0.0
 11
5.403929
 21
0.883602
 31
0.0
  0
SPLINE
  5
17c
100
AcDbEntity
  8
Layer_1
 62
7
100
AcDbSpline
 70
8
 71
3
 72
8
 73
4
 74
0
 40
0
 40
0
 40
0
 40
0
 40
1
 40
1
 40
1
 40
1
 10
5.403929
 20
0.883602
 30
0.0
 10
5.360179
 20
0.810852
 30
0.0
 10
5.315012
 20
0.760852
 30
0.0
 10
5.268345
 20
0.733435
 30
0.0
  0
SPLINE
  5
17d
100
AcDbEntity
  8
Layer_1
 62
7
100
AcDbSpline
 70
8
 71
3
 72
8
 73
4
 74
0
 40
0
 40
0
 40
0
 40
0
 40
1
 40
1
 40
1
 40
1
 10
5.268345
 20
0.733435
 30
0.0
 10
5.221595
 20
0.706019
 30
0.0
 10
5.162595
 20
0.692269
 30
0.0
 10
5.091513
 20
0.692269
 30
0.0
  0
SPLINE
  5
17e
100
AcDbEntity
  8
Layer_1
 62
7
100
AcDbSpline
 70
8
 71
3
 72
8
 73
4
 74
0
 40
0
 40
0
 40
0
 40
0
 40
1
 40
1
 40
1
 40
1
 10
5.091513
 20
0.692269
 30
0.0
 10
5.000263
 20
0.692269
 30
0.0
 10
4.928595
 20
0.726352
 30
0.0
 10
4.876345
 20
0.794602
 30
0.0
  0
SPLINE
  5
17f
100
AcDbEntity
  8
Layer_1
 62
7
100
AcDbSpline
 70
8
 71
3
 72
8
 73
4
 74
0
 40
0
 40
0
 40
0
 40
0
 40
1
 40
1
 40
1
 40
1
 10
4.876345
 20
0.794602
 30
0.0
 10
4.824012
 20
0.862769
 30
0.0
 10
4.797929
 20
0.957685
 30
0.0
 10
4.797929
 20
1.079269
 30
0.0
  0
SPLINE
  5
180
100
AcDbEntity
  8
Layer_1
 62
7
100
AcDbSpline
 70
8
 71
3
 72
8
 73
4
 74
0
 40
0
 40
0
 40
0
 40
0
 40
1
 40
1
 40
1
 40
1
 10
4.797929
 20
1.079269
 30
0.0
 10
4.797929
 20
1.209685
 30
0.0
 10
4.833763
 20
1.306602
 30
0.0
 10
4.905179
 20
1.370019
 30
0.0
  0
SPLINE
  5
181
100
AcDbEntity
  8
Layer_1
 62
7
100
AcDbSpline
 70
8
 71
3
 72
8
 73
4
 74
0
 40
0
 40
0
 40
0
 40
0
 40
1
 40
1
 40
1
 40
1
 10
4.905179
 20
1.370019
 30
0.0
 10
4.976763
 20
1.433435
 30
0.0
 10
5.083679
 20
1.468435
 30
0.0
 10
5.226012
 20
1.475102
 30
0.0
  0
LINE
  5
182
100
AcDbEntity
  8
Layer_1
 62
7
100
AcDbLine
 10
5.226012
 20
1.475102
 30
0.0
 11
5.390595
 21
1.481769
 31
0.0
  0
LINE
  5
183
100
AcDbEntity
  8
Layer_1
 62
7
100
AcDbLine
 10
5.390595
 20
1.481769
 30
0.0
 11
5.390595
 21
1.570685
 31
0.0
  0
SPLINE
  5
184
100
AcDbEntity
  8
Layer_1
 62
7
100
AcDbSpline
 70
8
 71
3
 72
8
 73
4
 74
0
 40
0
 40
0
 40
0
 40
0
 40
1
 40
1
 40
1
 40
1
 10
5.390595
 20
1.570685
 30
0.0
 10
5.390595
 20
1.686435
 30
0.0
 10
5.340595
 20
1.744185
 30
0.0
 10
5.240429
 20
1.744185
 30
0.0
  0
SPLINE
  5
185
100
AcDbEntity
  8
Layer_1
 62
7
100
AcDbSpline
 70
8
 71
3
 72
8
 73
4
 74
0
 40
0
 40
0
 40
0
 40
0
 40
1
 40
1
 40
1
 40
1
 10
5.240429
 20
1.744185
 30
0.0
 10
5.166429
 20
1.744185
 30
0.0
 10
5.081096
 20
1.715269
 30
0.0
 10
4.984763
 20
1.657435
 30
0.0
  0
LINE
  5
186
100
AcDbEntity
  8
Layer_1
 62
7
100
AcDbLine
 10
4.984763
 20
1.657435
 30
0.0
 11
4.882429
 21
1.862102
 31
0.0
  0
SPLINE
  5
187
100
AcDbEntity
  8
Layer_1
 62
7
100
AcDbSpline
 70
8
 71
3
 72
8
 73
4
 74
0
 40
0
 40
0
 40
0
 40
0
 40
1
 40
1
 40
1
 40
1
 10
4.882429
 20
1.862102
 30
0.0
 10
5.005512
 20
1.939935
 30
0.0
 10
5.139345
 20
1.978852
 30
0.0
 10
5.283846
 20
1.978852
 30
0.0
  0
SPLINE
  5
188
100
AcDbEntity
  8
Layer_1
 62
7
100
AcDbSpline
 70
8
 71
3
 72
8
 73
4
 74
0
 40
0
 40
0
 40
0
 40
0
 40
1
 40
1
 40
1
 40
1
 10
5.283846
 20
1.978852
 30
0.0
 10
5.415096
 20
1.978852
 30
0.0
 10
5.514929
 20
1.941185
 30
0.0
 10
5.583513
 20
1.865935
 30
0.0
  0
SPLINE
  5
189
100
AcDbEntity
  8
Layer_1
 62
7
100
AcDbSpline
 70
8
 71
3
 72
8
 73
4
 74
0
 40
0
 40
0
 40
0
 40
0
 40
1
 40
1
 40
1
 40
1
 10
5.583513
 20
1.865935
 30
0.0
 10
5.652096
 20
1.790685
 30
0.0
 10
5.686346
 20
1.684185
 30
0.0
 10
5.686346
 20
1.546269
 30
0.0
  0
LINE
  5
18a
100
AcDbEntity
  8
Layer_1
 62
7
100
AcDbLine
 10
5.686346
 20
1.546269
 30
0.0
 11
5.686346
 21
0.714519
 31
0.0
  0
LINE
  5
18b
100
AcDbEntity
  8
Layer_1
 62
7
100
AcDbLine
 10
5.686346
 20
0.714519
 30
0.0
 11
5.469596
 21
0.714519
 31
0.0
  0
LINE
  5
18c
100
AcDbEntity
  8
Layer_1
 62
7
100
AcDbLine
 10
5.469596
 20
0.714519
 30
0.0
 11
5.469596
 21
0.714519
 31
0.0
  0
SPLINE
  5
18d
100
AcDbEntity
  8
Layer_1
 62
7
100
AcDbSpline
 70
8
 71
3
 72
8
 73
4
 74
0
 40
0
 40
0
 40
0
 40
0
 40
1
 40
1
 40
1
 40
1
 10
6.382455
 20
1.725299
 30
0.0
 10
6.326121
 20
1.725299
 30
0.0
 10
6.285621
 20
1.698965
 30
0.0
 10
6.260704
 20
1.646382
 30
0.0
  0
SPLINE
  5
18e
100
AcDbEntity
  8
Layer_1
 62
7
100
AcDbSpline
 70
8
 71
3
 72
8
 73
4
 74
0
 40
0
 40
0
 40
0
 40
0
 40
1
 40
1
 40
1
 40
1
 10
6.260704
 20
1.646382
 30
0.0
 10
6.235871
 20
1.593715
 30
0.0
 10
6.222787
 20
1.501049
 30
0.0
 10
6.221287
 20
1.368299
 30
0.0
  0
LINE
  5
18f
100
AcDbEntity
  8
Layer_1
 62
7
100
AcDbLine
 10
6.221287
 20
1.368299
 30
0.0
 11
6.221287
 21
1.338299
 31
0.0
  0
SPLINE
  5
190
100
AcDbEntity
  8
Layer_1
 62
7
100
AcDbSpline
 70
8
 71
3
 72
8
 73
4
 74
0
 40
0
 40
0
 40
0
 40
0
 40
1
 40
1
 40
1
 40
1
 10
6.221287
 20
1.338299
 30
0.0
 10
6.221287
 20
1.194465
 30
0.0
 10
6.234038
 20
1.093299
 30
0.0
 10
6.259621
 20
1.034799
 30
0.0
  0
SPLINE
  5
191
100
AcDbEntity
  8
Layer_1
 62
7
100
AcDbSpline
 70
8
 71
3
 72
8
 73
4
 74
0
 40
0
 40
0
 40
0
 40
0
 40
1
 40
1
 40
1
 40
1
 10
6.259621
 20
1.034799
 30
0.0
 10
6.285204
 20
0.976215
 30
0.0
 10
6.326871
 20
0.946882
 30
0.0
 10
6.384705
 20
0.946882
 30
0.0
  0
SPLINE
  5
192
100
AcDbEntity
  8
Layer_1
 62
7
100
AcDbSpline
 70
8
 71
3
 72
8
 73
4
 74
0
 40
0
 40
0
 40
0
 40
0
 40
1
 40
1
 40
1
 40
1
 10
6.384705
 20
0.946882
 30
0.0
 10
6.491454
 20
0.946882
 30
0.0
 10
6.544788
 20
1.078132
 30
0.0
 10
6.544788
 20
1.340549
 30
0.0
  0
SPLINE
  5
193
100
AcDbEntity
  8
Layer_1
 62
7
100
AcDbSpline
 70
8
 71
3
 72
8
 73
4
 74
0
 40
0
 40
0
 40
0
 40
0
 40
1
 40
1
 40
1
 40
1
 10
6.544788
 20
1.340549
 30
0.0
 10
6.544788
 20
1.597049
 30
0.0
 10
6.490705
 20
1.725299
 30
0.0
 10
6.382455
 20
1.725299
 30
0.0
  0
SPLINE
  5
194
100
AcDbEntity
  8
Layer_1
 62
7
100
AcDbSpline
 70
8
 71
3
 72
8
 73
4
 74
0
 40
0
 40
0
 40
0
 40
0
 40
1
 40
1
 40
1
 40
1
 10
6.484788
 20
1.976549
 30
0.0
 10
6.597455
 20
1.976549
 30
0.0
 10
6.686038
 20
1.920632
 30
0.0
 10
6.750538
 20
1.808632
 30
0.0
  0
SPLINE
  5
195
100
AcDbEntity
  8
Layer_1
 62
7
100
AcDbSpline
 70
8
 71
3
 72
8
 73
4
 74
0
 40
0
 40
0
 40
0
 40
0
 40
1
 40
1
 40
1
 40
1
 10
6.750538
 20
1.808632
 30
0.0
 10
6.815037
 20
1.696715
 30
0.0
 10
6.847288
 20
1.539215
 30
0.0
 10
6.847288
 20
1.336132
 30
0.0
  0
SPLINE
  5
196
100
AcDbEntity
  8
Layer_1
 62
7
100
AcDbSpline
 70
8
 71
3
 72
8
 73
4
 74
0
 40
0
 40
0
 40
0
 40
0
 40
1
 40
1
 40
1
 40
1
 10
6.847288
 20
1.336132
 30
0.0
 10
6.847288
 20
1.130799
 30
0.0
 10
6.814788
 20
0.972132
 30
0.0
 10
6.750038
 20
0.860215
 30
0.0
  0
SPLINE
  5
197
100
AcDbEntity
  8
Layer_1
 62
7
100
AcDbSpline
 70
8
 71
3
 72
8
 73
4
 74
0
 40
0
 40
0
 40
0
 40
0
 40
1
 40
1
 40
1
 40
1
 10
6.750038
 20
0.860215
 30
0.0
 10
6.685121
 20
0.748299
 30
0.0
 10
6.595205
 20
0.692299
 30
0.0
 10
6.480371
 20
0.692299
 30
0.0
  0
SPLINE
  5
198
100
AcDbEntity
  8
Layer_1
 62
7
100
AcDbSpline
 70
8
 71
3
 72
8
 73
4
 74
0
 40
0
 40
0
 40
0
 40
0
 40
1
 40
1
 40
1
 40
1
 10
6.480371
 20
0.692299
 30
0.0
 10
6.424705
 20
0.692299
 30
0.0
 10
6.375621
 20
0.704299
 30
0.0
 10
6.333038
 20
0.728382
 30
0.0
  0
SPLINE
  5
199
100
AcDbEntity
  8
Layer_1
 62
7
100
AcDbSpline
 70
8
 71
3
 72
8
 73
4
 74
0
 40
0
 40
0
 40
0
 40
0
 40
1
 40
1
 40
1
 40
1
 10
6.333038
 20
0.728382
 30
0.0
 10
6.290371
 20
0.752465
 30
0.0
 10
6.250205
 20
0.794965
 30
0.0
 10
6.212371
 20
0.855715
 30
0.0
  0
LINE
  5
19a
100
AcDbEntity
  8
Layer_1
 62
7
100
AcDbLine
 10
6.212371
 20
0.855715
 30
0.0
 11
6.193455
 21
0.855715
 31
0.0
  0
LINE
  5
19b
100
AcDbEntity
  8
Layer_1
 62
7
100
AcDbLine
 10
6.193455
 20
0.855715
 30
0.0
 11
6.143371
 21
0.714549
 31
0.0
  0
LINE
  5
19c
100
AcDbEntity
  8
Layer_1
 62
7
100
AcDbLine
 10
6.143371
 20
0.714549
 30
0.0
 11
5.925538
 21
0.714549
 31
0.0
  0
LINE
  5
19d
100
AcDbEntity
  8
Layer_1
 62
7
100
AcDbLine
 10
5.925538
 20
0.714549
 30
0.0
 11
5.925538
 21
2.444715
 31
0.0
  0
LINE
  5
19e
100
AcDbEntity
  8
Layer_1
 62
7
100
AcDbLine
 10
5.925538
 20
2.444715
 30
0.0
 11
6.221287
 21
2.444715
 31
0.0
  0
LINE
  5
19f
100
AcDbEntity
  8
Layer_1
 62
7
100
AcDbLine
 10
6.221287
 20
2.444715
 30
0.0
 11
6.221287
 21
2.039965
 31
0.0
  0
SPLINE
  5
1a0
100
AcDbEntity
  8
Layer_1
 62
7
100
AcDbSpline
 70
8
 71
3
 72
8
 73
4
 74
0
 40
0
 40
0
 40
0
 40
0
 40
1
 40
1
 40
1
 40
1
 10
6.221287
 20
2.039965
 30
0.0
 10
6.221287
 20
2.022882
 30
0.0
 10
6.220887
 20
2.005132
 30
0.0
 10
6.220201
 20
1.986632
 30
0.0
  0
SPLINE
  5
1a1
100
AcDbEntity
  8
Layer_1
 62
7
100
AcDbSpline
 70
8
 71
3
 72
8
 73
4
 74
0
 40
0
 40
0
 40
0
 40
0
 40
1
 40
1
 40
1
 40
1
 10
6.220201
 20
1.986632
 30
0.0
 10
6.219454
 20
1.968049
 30
0.0
 10
6.214621
 20
1.903215
 30
0.0
 10
6.205701
 20
1.791965
 30
0.0
  0
LINE
  5
1a2
100
AcDbEntity
  8
Layer_1
 62
7
100
AcDbLine
 10
6.205701
 20
1.791965
 30
0.0
 11
6.221284
 21
1.791965
 31
0.0
  0
SPLINE
  5
1a3
100
AcDbEntity
  8
Layer_1
 62
7
100
AcDbSpline
 70
8
 71
3
 72
8
 73
4
 74
0
 40
0
 40
0
 40
0
 40
0
 40
1
 40
1
 40
1
 40
1
 10
6.221284
 20
1.791965
 30
0.0
 10
6.257534
 20
1.860132
 30
0.0
 10
6.296868
 20
1.907965
 30
0.0
 10
6.339201
 20
1.935465
 30
0.0
  0
SPLINE
  5
1a4
100
AcDbEntity
  8
Layer_1
 62
7
100
AcDbSpline
 70
8
 71
3
 72
8
 73
4
 74
0
 40
0
 40
0
 40
0
 40
0
 40
1
 40
1
 40
1
 40
1
 10
6.339201
 20
1.935465
 30
0.0
 10
6.381451
 20
1.962882
 30
0.0
 10
6.429951
 20
1.976549
 30
0.0
 10
6.484784
 20
1.976549
 30
0.0
  0
SPLINE
  5
1a5
100
AcDbEntity
  8
Layer_1
 62
7
100
AcDbSpline
 70
8
 71
3
 72
8
 73
4
 74
0
 40
0
 40
0
 40
0
 40
0
 40
1
 40
1
 40
1
 40
1
 10
8.376221
 20
1.162657
 30
0.0
 10
8.376221
 20
1.010657
 30
0.0
 10
8.337804
 20
0.894241
 30
0.0
 10
8.261138
 20
0.813491
 30
0.0
  0
SPLINE
  5
1a6
100
AcDbEntity
  8
Layer_1
 62
7
100
AcDbSpline
 70
8
 71
3
 72
8
 73
4
 74
0
 40
0
 40
0
 40
0
 40
0
 40
1
 40
1
 40
1
 40
1
 10
8.261138
 20
0.813491
 30
0.0
 10
8.184387
 20
0.732741
 30
0.0
 10
8.073805
 20
0.692324
 30
0.0
 10
7.929221
 20
0.692324
 30
0.0
  0
SPLINE
  5
1a7
100
AcDbEntity
  8
Layer_1
 62
7
100
AcDbSpline
 70
8
 71
3
 72
8
 73
4
 74
0
 40
0
 40
0
 40
0
 40
0
 40
1
 40
1
 40
1
 40
1
 10
7.929221
 20
0.692324
 30
0.0
 10
7.787638
 20
0.692324
 30
0.0
 10
7.667138
 20
0.720074
 30
0.0
 10
7.567805
 20
0.775657
 30
0.0
  0
LINE
  5
1a8
100
AcDbEntity
  8
Layer_1
 62
7
100
AcDbLine
 10
7.567805
 20
0.775657
 30
0.0
 11
7.567805
 21
1.074824
 31
0.0
  0
SPLINE
  5
1a9
100
AcDbEntity
  8
Layer_1
 62
7
100
AcDbSpline
 70
8
 71
3
 72
8
 73
4
 74
0
 40
0
 40
0
 40
0
 40
0
 40
1
 40
1
 40
1
 40
1
 10
7.567805
 20
1.074824
 30
0.0
 10
7.689388
 20
0.995491
 30
0.0
 10
7.800971
 20
0.955824
 30
0.0
 10
7.902555
 20
0.955824
 30
0.0
  0
SPLINE
  5
1aa
100
AcDbEntity
  8
Layer_1
 62
7
100
AcDbSpline
 70
8
 71
3
 72
8
 73
4
 74
0
 40
0
 40
0
 40
0
 40
0
 40
1
 40
1
 40
1
 40
1
 10
7.902555
 20
0.955824
 30
0.0
 10
7.960305
 20
0.955824
 30
0.0
 10
8.003888
 20
0.971740
 30
0.0
 10
8.033221
 20
1.003657
 30
0.0
  0
SPLINE
  5
1ab
100
AcDbEntity
  8
Layer_1
 62
7
100
AcDbSpline
 70
8
 71
3
 72
8
 73
4
 74
0
 40
0
 40
0
 40
0
 40
0
 40
1
 40
1
 40
1
 40
1
 10
8.033221
 20
1.003657
 30
0.0
 10
8.062471
 20
1.035491
 30
0.0
 10
8.077055
 20
1.078907
 30
0.0
 10
8.077055
 20
1.133741
 30
0.0
  0
SPLINE
  5
1ac
100
AcDbEntity
  8
Layer_1
 62
7
100
AcDbSpline
 70
8
 71
3
 72
8
 73
4
 74
0
 40
0
 40
0
 40
0
 40
0
 40
1
 40
1
 40
1
 40
1
 10
8.077055
 20
1.133741
 30
0.0
 10
8.077055
 20
1.187823
 30
0.0
 10
8.059638
 20
1.237324
 30
0.0
 10
8.024888
 20
1.282157
 30
0.0
  0
SPLINE
  5
1ad
100
AcDbEntity
  8
Layer_1
 62
7
100
AcDbSpline
 70
8
 71
3
 72
8
 73
4
 74
0
 40
0
 40
0
 40
0
 40
0
 40
1
 40
1
 40
1
 40
1
 10
8.024888
 20
1.282157
 30
0.0
 10
7.989971
 20
1.326991
 30
0.0
 10
7.932555
 20
1.376824
 30
0.0
 10
7.852471
 20
1.431741
 30
0.0
  0
SPLINE
  5
1ae
100
AcDbEntity
  8
Layer_1
 62
7
100
AcDbSpline
 70
8
 71
3
 72
8
 73
4
 74
0
 40
0
 40
0
 40
0
 40
0
 40
1
 40
1
 40
1
 40
1
 10
7.852471
 20
1.431741
 30
0.0
 10
7.782804
 20
1.479907
 30
0.0
 10
7.729971
 20
1.526074
 30
0.0
 10
7.693971
 20
1.570157
 30
0.0
  0
SPLINE
  5
1af
100
AcDbEntity
  8
Layer_1
 62
7
100
AcDbSpline
 70
8
 71
3
 72
8
 73
4
 74
0
 40
0
 40
0
 40
0
 40
0
 40
1
 40
1
 40
1
 40
1
 10
7.693971
 20
1.570157
 30
0.0
 10
7.658055
 20
1.614241
 30
0.0
 10
7.630305
 20
1.663741
 30
0.0
 10
7.610721
 20
1.718574
 30
0.0
  0
SPLINE
  5
1b0
100
AcDbEntity
  8
Layer_1
 62
7
100
AcDbSpline
 70
8
 71
3
 72
8
 73
4
 74
0
 40
0
 40
0
 40
0
 40
0
 40
1
 40
1
 40
1
 40
1
 10
7.610721
 20
1.718574
 30
0.0
 10
7.590971
 20
1.773491
 30
0.0
 10
7.581221
 20
1.837241
 30
0.0
 10
7.581221
 20
1.909824
 30
0.0
  0
SPLINE
  5
1b1
100
AcDbEntity
  8
Layer_1
 62
7
100
AcDbSpline
 70
8
 71
3
 72
8
 73
4
 74
0
 40
0
 40
0
 40
0
 40
0
 40
1
 40
1
 40
1
 40
1
 10
7.581221
 20
1.909824
 30
0.0
 10
7.581221
 20
2.049241
 30
0.0
 10
7.619971
 20
2.159657
 30
0.0
 10
7.697388
 20
2.241241
 30
0.0
  0
SPLINE
  5
1b2
100
AcDbEntity
  8
Layer_1
 62
7
100
AcDbSpline
 70
8
 71
3
 72
8
 73
4
 74
0
 40
0
 40
0
 40
0
 40
0
 40
1
 40
1
 40
1
 40
1
 10
7.697388
 20
2.241241
 30
0.0
 10
7.774805
 20
2.322741
 30
0.0
 10
7.878805
 20
2.363574
 30
0.0
 10
8.009305
 20
2.363574
 30
0.0
  0
SPLINE
  5
1b3
100
AcDbEntity
  8
Layer_1
 62
7
100
AcDbSpline
 70
8
 71
3
 72
8
 73
4
 74
0
 40
0
 40
0
 40
0
 40
0
 40
1
 40
1
 40
1
 40
1
 10
8.009305
 20
2.363574
 30
0.0
 10
8.133805
 20
2.363574
 30
0.0
 10
8.253555
 20
2.328741
 30
0.0
 10
8.368388
 20
2.258991
 30
0.0
  0
LINE
  5
1b4
100
AcDbEntity
  8
Layer_1
 62
7
100
AcDbLine
 10
8.368388
 20
2.258991
 30
0.0
 11
8.268388
 21
2.016574
 31
0.0
  0
SPLINE
  5
1b5
100
AcDbEntity
  8
Layer_1
 62
7
100
AcDbSpline
 70
8
 71
3
 72
8
 73
4
 74
0
 40
0
 40
0
 40
0
 40
0
 40
1
 40
1
 40
1
 40
1
 10
8.268388
 20
2.016574
 30
0.0
 10
8.232805
 20
2.037324
 30
0.0
 10
8.195555
 20
2.055907
 30
0.0
 10
8.156638
 20
2.072157
 30
0.0
  0
SPLINE
  5
1b6
100
AcDbEntity
  8
Layer_1
 62
7
100
AcDbSpline
 70
8
 71
3
 72
8
 73
4
 74
0
 40
0
 40
0
 40
0
 40
0
 40
1
 40
1
 40
1
 40
1
 10
8.156638
 20
2.072157
 30
0.0
 10
8.117721
 20
2.088491
 30
0.0
 10
8.075971
 20
2.096657
 30
0.0
 10
8.031555
 20
2.096657
 30
0.0
  0
SPLINE
  5
1b7
100
AcDbEntity
  8
Layer_1
 62
7
100
AcDbSpline
 70
8
 71
3
 72
8
 73
4
 74
0
 40
0
 40
0
 40
0
 40
0
 40
1
 40
1
 40
1
 40
1
 10
8.031555
 20
2.096657
 30
0.0
 10
7.982638
 20
2.096657
 30
0.0
 10
7.944971
 20
2.080574
 30
0.0
 10
7.918638
 20
2.048324
 30
0.0
  0
SPLINE
  5
1b8
100
AcDbEntity
  8
Layer_1
 62
7
100
AcDbSpline
 70
8
 71
3
 72
8
 73
4
 74
0
 40
0
 40
0
 40
0
 40
0
 40
1
 40
1
 40
1
 40
1
 10
7.918638
 20
2.048324
 30
0.0
 10
7.892388
 20
2.016074
 30
0.0
 10
7.879138
 20
1.972157
 30
0.0
 10
7.879138
 20
1.916574
 30
0.0
  0
SPLINE
  5
1b9
100
AcDbEntity
  8
Layer_1
 62
7
100
AcDbSpline
 70
8
 71
3
 72
8
 73
4
 74
0
 40
0
 40
0
 40
0
 40
0
 40
1
 40
1
 40
1
 40
1
 10
7.879138
 20
1.916574
 30
0.0
 10
7.879138
 20
1.861657
 30
0.0
 10
7.894888
 20
1.813823
 30
0.0
 10
7.926471
 20
1.773074
 30
0.0
  0
SPLINE
  5
1ba
100
AcDbEntity
  8
Layer_1
 62
7
100
AcDbSpline
 70
8
 71
3
 72
8
 73
4
 74
0
 40
0
 40
0
 40
0
 40
0
 40
1
 40
1
 40
1
 40
1
 10
7.926471
 20
1.773074
 30
0.0
 10
7.957888
 20
1.732324
 30
0.0
 10
8.012971
 20
1.685991
 30
0.0
 10
8.091555
 20
1.634074
 30
0.0
  0
SPLINE
  5
1bb
100
AcDbEntity
  8
Layer_1
 62
7
100
AcDbSpline
 70
8
 71
3
 72
8
 73
4
 74
0
 40
0
 40
0
 40
0
 40
0
 40
1
 40
1
 40
1
 40
1
 10
8.091555
 20
1.634074
 30
0.0
 10
8.197554
 20
1.562991
 30
0.0
 10
8.271471
 20
1.490241
 30
0.0
 10
8.313388
 20
1.416157
 30
0.0
  0
SPLINE
  5
1bc
100
AcDbEntity
  8
Layer_1
 62
7
100
AcDbSpline
 70
8
 71
3
 72
8
 73
4
 74
0
 40
0
 40
0
 40
0
 40
0
 40
1
 40
1
 40
1
 40
1
 10
8.313388
 20
1.416157
 30
0.0
 10
8.355305
 20
1.341991
 30
0.0
 10
8.376221
 20
1.257491
 30
0.0
 10
8.376221
 20
1.162657
 30
0.0
  0
LINE
  5
1bd
100
AcDbEntity
  8
Layer_1
 62
7
100
AcDbLine
 10
8.856488
 20
0.714499
 30
0.0
 11
8.560738
 21
0.714499
 31
0.0
  0
LINE
  5
1be
100
AcDbEntity
  8
Layer_1
 62
7
100
AcDbLine
 10
8.560738
 20
0.714499
 30
0.0
 11
8.560738
 21
1.953165
 31
0.0
  0
LINE
  5
1bf
100
AcDbEntity
  8
Layer_1
 62
7
100
AcDbLine
 10
8.560738
 20
1.953165
 30
0.0
 11
8.856488
 21
1.953165
 31
0.0
  0
LINE
  5
1c0
100
AcDbEntity
  8
Layer_1
 62
7
100
AcDbLine
 10
8.856488
 20
1.953165
 30
0.0
 11
8.856488
 21
0.714499
 31
0.0
  0
LINE
  5
1c1
100
AcDbEntity
  8
Layer_1
 62
7
100
AcDbLine
 10
8.856488
 20
0.714499
 30
0.0
 11
8.856488
 21
0.714499
 31
0.0
  0
SPLINE
  5
1c2
100
AcDbEntity
  8
Layer_1
 62
7
100
AcDbSpline
 70
8
 71
3
 72
8
 73
4
 74
0
 40
0
 40
0
 40
0
 40
0
 40
1
 40
1
 40
1
 40
1
 10
8.548488
 20
2.276832
 30
0.0
 10
8.548488
 20
2.325749
 30
0.0
 10
8.562821
 20
2.364415
 30
0.0
 10
8.591405
 20
2.392999
 30
0.0
  0
SPLINE
  5
1c3
100
AcDbEntity
  8
Layer_1
 62
7
100
AcDbSpline
 70
8
 71
3
 72
8
 73
4
 74
0
 40
0
 40
0
 40
0
 40
0
 40
1
 40
1
 40
1
 40
1
 10
8.591405
 20
2.392999
 30
0.0
 10
8.619821
 20
2.421499
 30
0.0
 10
8.659655
 20
2.435832
 30
0.0
 10
8.710821
 20
2.435832
 30
0.0
  0
SPLINE
  5
1c4
100
AcDbEntity
  8
Layer_1
 62
7
100
AcDbSpline
 70
8
 71
3
 72
8
 73
4
 74
0
 40
0
 40
0
 40
0
 40
0
 40
1
 40
1
 40
1
 40
1
 10
8.710821
 20
2.435832
 30
0.0
 10
8.758988
 20
2.435832
 30
0.0
 10
8.797571
 20
2.421499
 30
0.0
 10
8.826488
 20
2.392999
 30
0.0
  0
SPLINE
  5
1c5
100
AcDbEntity
  8
Layer_1
 62
7
100
AcDbSpline
 70
8
 71
3
 72
8
 73
4
 74
0
 40
0
 40
0
 40
0
 40
0
 40
1
 40
1
 40
1
 40
1
 10
8.826488
 20
2.392999
 30
0.0
 10
8.855404
 20
2.364415
 30
0.0
 10
8.869821
 20
2.325749
 30
0.0
 10
8.869821
 20
2.276832
 30
0.0
  0
SPLINE
  5
1c6
100
AcDbEntity
  8
Layer_1
 62
7
100
AcDbSpline
 70
8
 71
3
 72
8
 73
4
 74
0
 40
0
 40
0
 40
0
 40
0
 40
1
 40
1
 40
1
 40
1
 10
8.869821
 20
2.276832
 30
0.0
 10
8.869821
 20
2.226415
 30
0.0
 10
8.855071
 20
2.187332
 30
0.0
 10
8.825405
 20
2.159499
 30
0.0
  0
SPLINE
  5
1c7
100
AcDbEntity
  8
Layer_1
 62
7
100
AcDbSpline
 70
8
 71
3
 72
8
 73
4
 74
0
 40
0
 40
0
 40
0
 40
0
 40
1
 40
1
 40
1
 40
1
 10
8.825405
 20
2.159499
 30
0.0
 10
8.795738
 20
2.131665
 30
0.0
 10
8.757571
 20
2.117832
 30
0.0
 10
8.710821
 20
2.117832
 30
0.0
  0
SPLINE
  5
1c8
100
AcDbEntity
  8
Layer_1
 62
7
100
AcDbSpline
 70
8
 71
3
 72
8
 73
4
 74
0
 40
0
 40
0
 40
0
 40
0
 40
1
 40
1
 40
1
 40
1
 10
8.710821
 20
2.117832
 30
0.0
 10
8.661905
 20
2.117832
 30
0.0
 10
8.622655
 20
2.131665
 30
0.0
 10
8.592988
 20
2.159499
 30
0.0
  0
SPLINE
  5
1c9
100
AcDbEntity
  8
Layer_1
 62
7
100
AcDbSpline
 70
8
 71
3
 72
8
 73
4
 74
0
 40
0
 40
0
 40
0
 40
0
 40
1
 40
1
 40
1
 40
1
 10
8.592988
 20
2.159499
 30
0.0
 10
8.563321
 20
2.187332
 30
0.0
 10
8.548488
 20
2.226415
 30
0.0
 10
8.548488
 20
2.276832
 30
0.0
  0
SPLINE
  5
1ca
100
AcDbEntity
  8
Layer_1
 62
7
100
AcDbSpline
 70
8
 71
3
 72
8
 73
4
 74
0
 40
0
 40
0
 40
0
 40
0
 40
1
 40
1
 40
1
 40
1
 10
9.369071
 20
1.336107
 30
0.0
 10
9.369071
 20
1.207107
 30
0.0
 10
9.383237
 20
1.109607
 30
0.0
 10
9.411321
 20
1.043691
 30
0.0
  0
SPLINE
  5
1cb
100
AcDbEntity
  8
Layer_1
 62
7
100
AcDbSpline
 70
8
 71
3
 72
8
 73
4
 74
0
 40
0
 40
0
 40
0
 40
0
 40
1
 40
1
 40
1
 40
1
 10
9.411321
 20
1.043691
 30
0.0
 10
9.439571
 20
0.977691
 30
0.0
 10
9.484821
 20
0.944691
 30
0.0
 10
9.546988
 20
0.944691
 30
0.0
  0
SPLINE
  5
1cc
100
AcDbEntity
  8
Layer_1
 62
7
100
AcDbSpline
 70
8
 71
3
 72
8
 73
4
 74
0
 40
0
 40
0
 40
0
 40
0
 40
1
 40
1
 40
1
 40
1
 10
9.546988
 20
0.944691
 30
0.0
 10
9.665654
 20
0.944691
 30
0.0
 10
9.724988
 20
1.075190
 30
0.0
 10
9.724988
 20
1.336107
 30
0.0
  0
SPLINE
  5
1cd
100
AcDbEntity
  8
Layer_1
 62
7
100
AcDbSpline
 70
8
 71
3
 72
8
 73
4
 74
0
 40
0
 40
0
 40
0
 40
0
 40
1
 40
1
 40
1
 40
1
 10
9.724988
 20
1.336107
 30
0.0
 10
9.724988
 20
1.465857
 30
0.0
 10
9.710655
 20
1.562774
 30
0.0
 10
9.682071
 20
1.626941
 30
0.0
  0
SPLINE
  5
1ce
100
AcDbEntity
  8
Layer_1
 62
7
100
AcDbSpline
 70
8
 71
3
 72
8
 73
4
 74
0
 40
0
 40
0
 40
0
 40
0
 40
1
 40
1
 40
1
 40
1
 10
9.682071
 20
1.626941
 30
0.0
 10
9.653571
 20
1.690940
 30
0.0
 10
9.608571
 20
1.723107
 30
0.0
 10
9.546988
 20
1.723107
 30
0.0
  0
SPLINE
  5
1cf
100
AcDbEntity
  8
Layer_1
 62
7
100
AcDbSpline
 70
8
 71
3
 72
8
 73
4
 74
0
 40
0
 40
0
 40
0
 40
0
 40
1
 40
1
 40
1
 40
1
 10
9.546988
 20
1.723107
 30
0.0
 10
9.484821
 20
1.723107
 30
0.0
 10
9.439571
 20
1.690940
 30
0.0
 10
9.411321
 20
1.626941
 30
0.0
  0
SPLINE
  5
1d0
100
AcDbEntity
  8
Layer_1
 62
7
100
AcDbSpline
 70
8
 71
3
 72
8
 73
4
 74
0
 40
0
 40
0
 40
0
 40
0
 40
1
 40
1
 40
1
 40
1
 10
9.411321
 20
1.626941
 30
0.0
 10
9.383238
 20
1.562774
 30
0.0
 10
9.369071
 20
1.465857
 30
0.0
 10
9.369071
 20
1.336107
 30
0.0
  0
SPLINE
  5
1d1
100
AcDbEntity
  8
Layer_1
 62
7
100
AcDbSpline
 70
8
 71
3
 72
8
 73
4
 74
0
 40
0
 40
0
 40
0
 40
0
 40
1
 40
1
 40
1
 40
1
 10
10.027404
 20
1.336107
 30
0.0
 10
10.027404
 20
1.133023
 30
0.0
 10
9.984321
 20
0.974857
 30
0.0
 10
9.898404
 20
0.861857
 30
0.0
  0
SPLINE
  5
1d2
100
AcDbEntity
  8
Layer_1
 62
7
100
AcDbSpline
 70
8
 71
3
 72
8
 73
4
 74
0
 40
0
 40
0
 40
0
 40
0
 40
1
 40
1
 40
1
 40
1
 10
9.898404
 20
0.861857
 30
0.0
 10
9.812404
 20
0.748857
 30
0.0
 10
9.694571
 20
0.692274
 30
0.0
 10
9.544821
 20
0.692274
 30
0.0
  0
SPLINE
  5
1d3
100
AcDbEntity
  8
Layer_1
 62
7
100
AcDbSpline
 70
8
 71
3
 72
8
 73
4
 74
0
 40
0
 40
0
 40
0
 40
0
 40
1
 40
1
 40
1
 40
1
 10
9.544821
 20
0.692274
 30
0.0
 10
9.449905
 20
0.692274
 30
0.0
 10
9.366154
 20
0.718191
 30
0.0
 10
9.293488
 20
0.770107
 30
0.0
  0
SPLINE
  5
1d4
100
AcDbEntity
  8
Layer_1
 62
7
100
AcDbSpline
 70
8
 71
3
 72
8
 73
4
 74
0
 40
0
 40
0
 40
0
 40
0
 40
1
 40
1
 40
1
 40
1
 10
9.293488
 20
0.770107
 30
0.0
 10
9.220905
 20
0.822024
 30
0.0
 10
9.164905
 20
0.896691
 30
0.0
 10
9.125571
 20
0.994191
 30
0.0
  0
SPLINE
  5
1d5
100
AcDbEntity
  8
Layer_1
 62
7
100
AcDbSpline
 70
8
 71
3
 72
8
 73
4
 74
0
 40
0
 40
0
 40
0
 40
0
 40
1
 40
1
 40
1
 40
1
 10
9.125571
 20
0.994191
 30
0.0
 10
9.086321
 20
1.091607
 30
0.0
 10
9.066654
 20
1.205607
 30
0.0
 10
9.066654
 20
1.336107
 30
0.0
  0
SPLINE
  5
1d6
100
AcDbEntity
  8
Layer_1
 62
7
100
AcDbSpline
 70
8
 71
3
 72
8
 73
4
 74
0
 40
0
 40
0
 40
0
 40
0
 40
1
 40
1
 40
1
 40
1
 10
9.066654
 20
1.336107
 30
0.0
 10
9.066654
 20
1.537024
 30
0.0
 10
9.109237
 20
1.693941
 30
0.0
 10
9.194571
 20
1.807024
 30
0.0
  0
SPLINE
  5
1d7
100
AcDbEntity
  8
Layer_1
 62
7
100
AcDbSpline
 70
8
 71
3
 72
8
 73
4
 74
0
 40
0
 40
0
 40
0
 40
0
 40
1
 40
1
 40
1
 40
1
 10
9.194571
 20
1.807024
 30
0.0
 10
9.279737
 20
1.920024
 30
0.0
 10
9.398071
 20
1.976607
 30
0.0
 10
9.549237
 20
1.976607
 30
0.0
  0
SPLINE
  5
1d8
100
AcDbEntity
  8
Layer_1
 62
7
100
AcDbSpline
 70
8
 71
3
 72
8
 73
4
 74
0
 40
0
 40
0
 40
0
 40
0
 40
1
 40
1
 40
1
 40
1
 10
9.549237
 20
1.976607
 30
0.0
 10
9.695321
 20
1.976607
 30
0.0
 10
9.811487
 20
1.918941
 30
0.0
 10
9.897821
 20
1.803691
 30
0.0
  0
SPLINE
  5
1d9
100
AcDbEntity
  8
Layer_1
 62
7
100
AcDbSpline
 70
8
 71
3
 72
8
 73
4
 74
0
 40
0
 40
0
 40
0
 40
0
 40
1
 40
1
 40
1
 40
1
 10
9.897821
 20
1.803691
 30
0.0
 10
9.984154
 20
1.688441
 30
0.0
 10
10.027404
 20
1.532524
 30
0.0
 10
10.027404
 20
1.336107
 30
0.0
  0
LINE
  5
1da
100
AcDbEntity
  8
Layer_1
 62
7
100
AcDbLine
 10
10.852396
 20
0.714532
 30
0.0
 11
10.852396
 21
1.452865
 31
0.0
  0
SPLINE
  5
1db
100
AcDbEntity
  8
Layer_1
 62
7
100
AcDbSpline
 70
8
 71
3
 72
8
 73
4
 74
0
 40
0
 40
0
 40
0
 40
0
 40
1
 40
1
 40
1
 40
1
 10
10.852396
 20
1.452865
 30
0.0
 10
10.852396
 20
1.542532
 30
0.0
 10
10.841646
 20
1.610365
 30
0.0
 10
10.820146
 20
1.656365
 30
0.0
  0
SPLINE
  5
1dc
100
AcDbEntity
  8
Layer_1
 62
7
100
AcDbSpline
 70
8
 71
3
 72
8
 73
4
 74
0
 40
0
 40
0
 40
0
 40
0
 40
1
 40
1
 40
1
 40
1
 10
10.820146
 20
1.656365
 30
0.0
 10
10.798646
 20
1.702282
 30
0.0
 10
10.763813
 20
1.725282
 30
0.0
 10
10.715646
 20
1.725282
 30
0.0
  0
SPLINE
  5
1dd
100
AcDbEntity
  8
Layer_1
 62
7
100
AcDbSpline
 70
8
 71
3
 72
8
 73
4
 74
0
 40
0
 40
0
 40
0
 40
0
 40
1
 40
1
 40
1
 40
1
 10
10.715646
 20
1.725282
 30
0.0
 10
10.651897
 20
1.725282
 30
0.0
 10
10.605230
 20
1.693615
 30
0.0
 10
10.575563
 20
1.630199
 30
0.0
  0
SPLINE
  5
1de
100
AcDbEntity
  8
Layer_1
 62
7
100
AcDbSpline
 70
8
 71
3
 72
8
 73
4
 74
0
 40
0
 40
0
 40
0
 40
0
 40
1
 40
1
 40
1
 40
1
 10
10.575563
 20
1.630199
 30
0.0
 10
10.545896
 20
1.566865
 30
0.0
 10
10.531146
 20
1.459865
 30
0.0
 10
10.531146
 20
1.309365
 30
0.0
  0
LINE
  5
1df
100
AcDbEntity
  8
Layer_1
 62
7
100
AcDbLine
 10
10.531146
 20
1.309365
 30
0.0
 11
10.531146
 21
0.714532
 31
0.0
  0
LINE
  5
1e0
100
AcDbEntity
  8
Layer_1
 62
7
100
AcDbLine
 10
10.531146
 20
0.714532
 30
0.0
 11
10.235313
 21
0.714532
 31
0.0
  0
LINE
  5
1e1
100
AcDbEntity
  8
Layer_1
 62
7
100
AcDbLine
 10
10.235313
 20
0.714532
 30
0.0
 11
10.235313
 21
1.953199
 31
0.0
  0
LINE
  5
1e2
100
AcDbEntity
  8
Layer_1
 62
7
100
AcDbLine
 10
10.235313
 20
1.953199
 30
0.0
 11
10.469896
 21
1.953199
 31
0.0
  0
LINE
  5
1e3
100
AcDbEntity
  8
Layer_1
 62
7
100
AcDbLine
 10
10.469896
 20
1.953199
 30
0.0
 11
10.505479
 21
1.794199
 31
0.0
  0
LINE
  5
1e4
100
AcDbEntity
  8
Layer_1
 62
7
100
AcDbLine
 10
10.505479
 20
1.794199
 30
0.0
 11
10.524479
 21
1.794199
 31
0.0
  0
SPLINE
  5
1e5
100
AcDbEntity
  8
Layer_1
 62
7
100
AcDbSpline
 70
8
 71
3
 72
8
 73
4
 74
0
 40
0
 40
0
 40
0
 40
0
 40
1
 40
1
 40
1
 40
1
 10
10.524479
 20
1.794199
 30
0.0
 10
10.551063
 20
1.851282
 30
0.0
 10
10.589229
 20
1.895949
 30
0.0
 10
10.638979
 20
1.928199
 30
0.0
  0
SPLINE
  5
1e6
100
AcDbEntity
  8
Layer_1
 62
7
100
AcDbSpline
 70
8
 71
3
 72
8
 73
4
 74
0
 40
0
 40
0
 40
0
 40
0
 40
1
 40
1
 40
1
 40
1
 10
10.638979
 20
1.928199
 30
0.0
 10
10.688563
 20
1.960449
 30
0.0
 10
10.746813
 20
1.976615
 30
0.0
 10
10.813479
 20
1.976615
 30
0.0
  0
SPLINE
  5
1e7
100
AcDbEntity
  8
Layer_1
 62
7
100
AcDbSpline
 70
8
 71
3
 72
8
 73
4
 74
0
 40
0
 40
0
 40
0
 40
0
 40
1
 40
1
 40
1
 40
1
 10
10.813479
 20
1.976615
 30
0.0
 10
10.926229
 20
1.976615
 30
0.0
 10
11.010563
 20
1.938032
 30
0.0
 10
11.066479
 20
1.860949
 30
0.0
  0
SPLINE
  5
1e8
100
AcDbEntity
  8
Layer_1
 62
7
100
AcDbSpline
 70
8
 71
3
 72
8
 73
4
 74
0
 40
0
 40
0
 40
0
 40
0
 40
1
 40
1
 40
1
 40
1
 10
11.066479
 20
1.860949
 30
0.0
 10
11.122479
 20
1.783865
 30
0.0
 10
11.150396
 20
1.671199
 30
0.0
 10
11.150396
 20
1.522949
 30
0.0
  0
LINE
  5
1e9
100
AcDbEntity
  8
Layer_1
 62
7
100
AcDbLine
 10
11.150396
 20
1.522949
 30
0.0
 11
11.150396
 21
0.714532
 31
0.0
  0
LINE
  5
1ea
100
AcDbEntity
  8
Layer_1
 62
7
100
AcDbLine
 10
11.150396
 20
0.714532
 30
0.0
 11
10.852396
 21
0.714532
 31
0.0
  0
LINE
  5
1eb
100
AcDbEntity
  8
Layer_1
 62
7
100
AcDbLine
 10
10.852396
 20
0.714532
 30
0.0
 11
10.852396
 21
0.714532
 31
0.0
  0
ENDSEC
  0
SECTION
  2
OBJECTS
  0
DICTIONARY
  5
C
330
0
100
AcDbDictionary
  3
ACAD_GROUP
350
D
  3
ACAD_MLINESTYLE
350
17
  0
DICTIONARY
  5
D
330
C
100
AcDbDictionary
  0
DICTIONARY
  5
1A
330
C
100
AcDbDictionary
  0
DICTIONARY
  5
17
330
C
100
AcDbDictionary
  3
STANDARD
350
18
  0
DICTIONARY
  5
19
330
C
100
AcDbDictionary
  0
ENDSEC
  0
EOF
